<svg width="861" height="498" viewBox="0 0 861 498" fill="none" xmlns="http://www.w3.org/2000/svg">
<g clip-path="url(#clip0_477_726)">
<path d="M698.577 511.458C676.337 341.802 674.465 170.153 693 0.0644531" stroke="white" stroke-opacity="0.5" stroke-miterlimit="10"/>
<path d="M744.316 521.423C738.974 368.91 792.877 216.204 768.361 65.5195" stroke="white" stroke-opacity="0.5" stroke-miterlimit="10"/>
<path d="M786.218 528.645C799.688 375.342 809.014 221.748 814.194 67.8613" stroke="white" stroke-opacity="0.5" stroke-miterlimit="10"/>
<path d="M787.808 527.176C734.721 379.601 706.747 224.391 705.015 67.8223" stroke="white" stroke-opacity="0.5" stroke-miterlimit="10"/>
<path d="M740.386 458.982C683.252 347.354 649.915 225.376 642.429 100.564" stroke="white" stroke-opacity="0.5" stroke-miterlimit="10"/>
<path d="M398.273 470.913C390.942 325.33 398.89 179.389 421.991 35.416" stroke="white" stroke-opacity="0.5" stroke-miterlimit="10"/>
<path d="M460.374 450.615C455.749 334.881 464.844 219.01 487.476 105.355" stroke="white" stroke-opacity="0.5" stroke-miterlimit="10"/>
<path d="M475.812 506.113C480.896 376.9 500.062 248.601 532.979 123.428" stroke="white" stroke-opacity="0.5" stroke-miterlimit="10"/>
<path d="M580.769 498.596C537.432 362.086 511.601 220.765 503.879 77.9297" stroke="white" stroke-opacity="0.5" stroke-miterlimit="10"/>
<path d="M396.886 440.636C360.296 303.187 340.012 162.016 336.44 19.957" stroke="white" stroke-opacity="0.5" stroke-miterlimit="10"/>
<path d="M260.14 489.12C199.562 367.328 167.476 233.69 166.245 98.0527" stroke="white" stroke-opacity="0.5" stroke-miterlimit="10"/>
<path d="M298.905 528.221C278.644 381.261 256.122 234.628 231.341 88.3203" stroke="white" stroke-opacity="0.5" stroke-miterlimit="10"/>
<path d="M201.237 494.052C157.978 377.749 136.42 254.69 137.605 130.82" stroke="white" stroke-opacity="0.5" stroke-miterlimit="10"/>
<path d="M337.304 415.71C298.401 303.411 266.615 188.838 242.129 72.6523" stroke="white" stroke-opacity="0.5" stroke-miterlimit="10"/>
<path d="M238.171 445.837C177.802 346.747 127.304 242.129 87.3833 133.447" stroke="white" stroke-opacity="0.5" stroke-miterlimit="10"/>
<path d="M814.728 513.697L828.769 93.0312" stroke="white" stroke-opacity="0.5" stroke-miterlimit="10"/>
<path d="M845.891 468.29C857.442 317.256 855.694 165.518 840.666 14.7812" stroke="white" stroke-opacity="0.5" stroke-miterlimit="10"/>
<path d="M826.667 543.476C864.188 365.167 888.355 184.378 898.972 2.57422" stroke="white" stroke-opacity="0.5" stroke-miterlimit="10"/>
<path d="M645.499 513.389C586.135 364.674 552.17 207.293 544.983 47.6365" stroke="white" stroke-opacity="0.5" stroke-miterlimit="10"/>
<path d="M603.675 476.799C513.334 347.722 439.047 208.417 382.411 61.875" stroke="white" stroke-opacity="0.5" stroke-miterlimit="10"/>
<path d="M375.519 493.225C346.915 343.219 324.316 192.268 307.72 40.373" stroke="white" stroke-opacity="0.5" stroke-miterlimit="10"/>
<path d="M297.284 460.757C243.223 319.862 200.153 175.103 168.452 27.7441" stroke="white" stroke-opacity="0.5" stroke-miterlimit="10"/>
<path d="M278.046 522.914C182.702 409.862 84.7451 291.531 48.8408 148.867" stroke="white" stroke-opacity="0.5" stroke-miterlimit="10"/>
<path d="M215.995 506.296C117.918 379.942 43.1985 237.538 -4.73341 85.6172" stroke="white" stroke-opacity="0.5" stroke-miterlimit="10"/>
<path d="M463.261 463.319L356.88 65.0938" stroke="white" stroke-opacity="0.5" stroke-miterlimit="10"/>
<path d="M671.19 500.824C620.785 344.437 594.273 181.526 592.525 17.4453" stroke="white" stroke-opacity="0.5" stroke-miterlimit="10"/>
<path d="M717.726 551.806C662.197 375.467 625.918 193.79 609.503 9.86133" stroke="white" stroke-opacity="0.5" stroke-miterlimit="10"/>
</g>
<defs>
<clipPath id="clip0_477_726">
<rect width="860.624" height="498" fill="white" transform="matrix(-1 0 0 1 860.624 0)"/>
</clipPath>
</defs>
</svg>
