<svg width="232" height="121" viewBox="0 0 232 121" fill="none" xmlns="http://www.w3.org/2000/svg">
<g clip-path="url(#clip0_600_1172)">
<path d="M193.999 142.034C187.823 94.9196 187.303 47.2518 192.45 0.0175476" stroke="white" stroke-opacity="0.5" stroke-miterlimit="10"/>
<path d="M206.703 144.801C205.219 102.448 220.188 60.0405 213.38 18.1947" stroke="white" stroke-opacity="0.5" stroke-miterlimit="10"/>
<path d="M218.338 146.807C222.078 104.234 224.668 61.5806 226.107 18.8456" stroke="white" stroke-opacity="0.5" stroke-miterlimit="10"/>
<path d="M218.779 146.4C204.037 105.417 196.268 62.3148 195.787 18.8348" stroke="white" stroke-opacity="0.5" stroke-miterlimit="10"/>
<path d="M205.611 127.461C189.745 96.4615 180.487 62.5876 178.408 27.9268" stroke="white" stroke-opacity="0.5" stroke-miterlimit="10"/>
<path d="M110.604 130.775C108.568 90.3453 110.775 49.8169 117.19 9.83484" stroke="white" stroke-opacity="0.5" stroke-miterlimit="10"/>
<path d="M127.85 125.137C126.566 92.9973 129.092 60.8196 135.376 29.2571" stroke="white" stroke-opacity="0.5" stroke-miterlimit="10"/>
<path d="M132.137 140.549C133.549 104.666 138.871 69.0369 148.013 34.2758" stroke="white" stroke-opacity="0.5" stroke-miterlimit="10"/>
<path d="M161.283 138.462C149.248 100.553 142.075 61.3073 139.931 21.6413" stroke="white" stroke-opacity="0.5" stroke-miterlimit="10"/>
<path d="M110.219 122.366C100.058 84.1955 94.4246 44.9918 93.4327 5.54132" stroke="white" stroke-opacity="0.5" stroke-miterlimit="10"/>
<path d="M72.2437 135.831C55.4209 102.009 46.5105 64.8971 46.1687 27.2299" stroke="white" stroke-opacity="0.5" stroke-miterlimit="10"/>
<path d="M83.0076 146.689C77.3808 105.877 71.1265 65.1563 64.2448 24.5261" stroke="white" stroke-opacity="0.5" stroke-miterlimit="10"/>
<path d="M55.8857 137.2C43.8724 104.902 37.8856 70.7277 38.2147 36.3286" stroke="white" stroke-opacity="0.5" stroke-miterlimit="10"/>
<path d="M93.6714 115.445C82.868 84.2587 74.0409 52.4411 67.241 20.1759" stroke="white" stroke-opacity="0.5" stroke-miterlimit="10"/>
<path d="M66.1418 123.811C49.3772 96.2935 35.3537 67.2406 24.2674 37.0593" stroke="white" stroke-opacity="0.5" stroke-miterlimit="10"/>
<path d="M226.254 142.656L230.153 25.8348" stroke="white" stroke-opacity="0.5" stroke-miterlimit="10"/>
<path d="M229.57 150.926C239.99 101.408 246.702 51.2024 249.65 0.714508" stroke="white" stroke-opacity="0.5" stroke-miterlimit="10"/>
<path d="M179.259 142.57C162.773 101.272 153.341 57.5662 151.345 13.2287" stroke="white" stroke-opacity="0.5" stroke-miterlimit="10"/>
<path d="M167.644 132.409C142.556 96.5642 121.926 57.8784 106.198 17.1831" stroke="white" stroke-opacity="0.5" stroke-miterlimit="10"/>
<path d="M104.284 136.97C96.3409 95.3127 90.0649 53.3929 85.4561 11.211" stroke="white" stroke-opacity="0.5" stroke-miterlimit="10"/>
<path d="M82.5591 127.955C67.546 88.8274 55.5854 48.6273 46.7817 7.70493" stroke="white" stroke-opacity="0.5" stroke-miterlimit="10"/>
<path d="M77.2163 145.215C50.7388 113.82 23.5358 80.9589 13.565 41.3405" stroke="white" stroke-opacity="0.5" stroke-miterlimit="10"/>
<path d="M59.9832 140.601C32.7465 105.512 11.9967 65.9655 -1.3142 23.7765" stroke="white" stroke-opacity="0.5" stroke-miterlimit="10"/>
<path d="M128.651 128.665L99.1085 18.0758" stroke="white" stroke-opacity="0.5" stroke-miterlimit="10"/>
<path d="M186.395 139.081C172.397 95.6515 165.035 50.4105 164.549 4.84442" stroke="white" stroke-opacity="0.5" stroke-miterlimit="10"/>
<path d="M199.317 153.238C183.897 104.268 173.822 53.8155 169.264 2.73758" stroke="white" stroke-opacity="0.5" stroke-miterlimit="10"/>
</g>
<defs>
<clipPath id="clip0_600_1172">
<rect width="238.999" height="138.297" fill="white" transform="matrix(-1 0 0 1 239 0)"/>
</clipPath>
</defs>
</svg>
