<svg width="227" height="502" viewBox="0 0 227 502" fill="none" xmlns="http://www.w3.org/2000/svg">
<path d="M218.142 25.8608C217.827 30.6343 216.87 35.3597 216.453 40.1332C216.026 45.0729 215.433 49.9429 214.77 54.8557C214.091 59.8811 213.167 64.8529 212.756 69.9104C212.649 71.164 212.563 72.4231 212.478 73.6607C212.225 72.5892 212.006 71.498 211.82 70.3872C211.573 69.0778 211.395 67.7562 211.286 66.428C211.206 65.094 211.259 63.7492 211.126 62.4313C211.017 61.1849 210.812 59.949 210.511 58.7346C210.228 57.6631 209.822 56.5916 209.902 55.4665C209.929 55.1129 207.321 55.2575 207.273 55.9487C207.193 57.0684 207.599 58.1506 207.882 59.2168C208.174 60.3889 208.376 61.5818 208.486 62.7849C208.63 64.1618 208.577 65.5333 208.657 66.9048C208.765 68.2331 208.943 69.5547 209.191 70.864C209.771 74.3184 210.691 77.7067 211.938 80.979C211.847 81.9541 211.746 82.9292 211.617 83.8989C210.976 88.9403 209.972 93.9068 208.946 98.9C207.909 103.963 207.161 109.079 206.098 114.121C203.992 124.134 203.03 134.211 202.24 144.407C201.807 150.016 201.572 155.658 200.898 161.24C200.247 166.635 199.664 172.228 197.463 177.243C196.586 179.247 196.896 181.529 198.9 182.74C200.594 183.758 203.517 183.276 204.388 181.299C208.422 172.089 209.074 161.605 209.731 151.666C210.426 141.219 210.917 130.552 212.98 120.277C213.336 118.466 213.707 116.651 214.091 114.833C215.443 114.158 216.763 113.424 218.104 112.69C219.077 112.144 220.048 111.592 221.017 111.035C221.465 110.778 221.925 110.531 222.368 110.263C222.582 110.129 222.791 109.985 223.01 109.861C223.229 109.738 223.603 109.674 223.234 109.674C223.833 109.674 224.629 109.492 224.794 108.811C224.96 108.131 224.303 107.697 223.726 107.692C222.433 107.692 221.556 108.281 220.482 108.897C219.408 109.513 218.281 110.167 217.175 110.788C216.325 111.26 215.47 111.737 214.615 112.203C216.138 104.772 217.639 97.3142 218.762 89.835C220.236 79.9558 220.589 69.9693 222.042 60.0793C222.887 54.2985 223.763 48.5071 224.228 42.6781C224.682 37.0527 225.751 31.4915 226.125 25.8661C226.499 20.7015 218.484 20.7229 218.142 25.8608Z" stroke="black" stroke-miterlimit="10"/>
<path d="M122.649 302.241C120.266 302.241 118.909 304.094 118.641 306.259C118.15 310.25 116.547 314.177 115.761 318.206C115.526 319.417 115.334 320.638 115.168 321.865C114.532 319.899 113.811 317.96 113.138 316.004C112.288 313.534 111.636 311.027 111 308.503C110.294 305.938 109.934 303.289 109.932 300.628C109.964 299.471 107.388 300.092 107.356 301.051C107.352 303.682 107.688 306.302 108.355 308.846C108.954 311.38 109.59 313.893 110.418 316.347C111.246 318.801 112.24 321.313 112.983 323.847C113.351 325.106 113.656 326.398 114.126 327.598C114.212 327.816 114.302 328.035 114.399 328.257C114.222 329.8 114.035 331.337 113.8 332.87C113.041 337.729 112.886 342.765 112.454 347.672C112.01 352.805 112.544 357.986 112.267 363.123C111.989 368.261 111.796 373.469 111.332 378.601C110.867 383.734 109.67 388.663 108.542 393.629C106.186 403.975 103.931 414.181 100.265 424.167C98.4805 429.026 106.223 431.132 107.992 426.31C111.657 416.324 113.912 406.112 116.269 395.772C117.487 390.415 118.679 385.089 119.251 379.63C119.785 374.476 119.785 369.285 120.212 364.125C120.64 358.966 120.068 353.801 120.394 348.664C120.554 346.054 121.051 343.477 121.19 340.868C121.243 338.421 121.437 335.98 121.773 333.555C122.617 328.589 122.569 323.376 123.91 318.506C125.021 314.381 126.149 310.47 126.667 306.232C126.924 304.105 124.626 302.241 122.649 302.241Z" stroke="black" stroke-miterlimit="10"/>
<path d="M44.4818 49.7374C44.1986 44.9478 43.6589 40.1743 43.2581 35.39C42.45 25.2727 42.629 15.1005 43.7925 5.01815C44.0276 2.87514 41.778 1 39.7849 1C37.4177 1 36.0124 2.85371 35.7773 5.01815C34.6137 15.1005 34.4348 25.2727 35.243 35.39C35.4994 38.4652 35.8094 41.5351 36.0765 44.6103C35.4033 44.0745 34.73 43.512 34.0674 42.9495C32.4376 41.5726 30.8613 40.1368 29.3224 38.6634C27.8645 37.367 26.5738 35.893 25.4805 34.2756C24.4118 32.5826 24.2942 30.4611 23.0812 28.8592C22.7072 28.3716 22.0125 27.9591 21.4301 28.3555C21.1874 28.5662 21.0353 28.8627 21.0054 29.1831C20.9755 29.5036 21.0703 29.8232 21.2698 30.0753C21.8046 30.9296 22.1929 31.8676 22.4187 32.8505C22.7917 33.9522 23.313 34.9977 23.9683 35.9579C25.3682 38.0473 27.2491 39.7617 29.0713 41.4708C31.002 43.2781 32.9987 45.005 35.0613 46.6515C35.4887 46.989 35.9055 47.3426 36.3223 47.6909C36.3704 48.3766 36.4292 49.0624 36.4666 49.7482C36.5548 51.4829 36.5548 53.221 36.4666 54.9557C34.1529 54.2485 31.7323 53.8199 29.5201 52.8127C29.2223 52.6878 28.8985 52.6381 28.577 52.668C28.2556 52.6978 27.9464 52.8064 27.6766 52.9841C27.3453 53.2091 26.8644 53.836 27.4575 54.1092C29.8514 55.2128 32.4216 55.7164 34.9384 56.4719C35.4382 56.6 35.968 56.5309 36.4185 56.279C36.2742 58.9578 36.0658 61.6365 36.0926 64.3742C36.2742 83.3774 35.5582 102.381 34.8796 121.341C34.6926 126.516 42.7078 126.505 42.8948 121.341C43.5787 102.381 44.2894 83.3774 44.1078 64.3742C44.0703 59.4506 44.7971 54.6557 44.4818 49.7374Z" stroke="black" stroke-miterlimit="10"/>
<path d="M211.714 247.222C210.739 248.634 210.015 250.206 209.577 251.867C208.986 253.762 208.297 255.625 207.514 257.449C206.098 261.167 204.704 264.891 203.272 268.604C201.91 272.236 200.342 275.786 198.575 279.238C197.741 280.846 196.972 282.49 196.122 284.06C195.19 285.617 194.128 287.092 192.948 288.469C192.328 289.252 191.831 290.125 191.227 290.923C190.8 291.491 190.335 292.032 189.865 292.563C189.865 290.323 189.913 288.089 189.945 285.86C190.025 281.199 189.491 276.56 189.491 271.834C189.491 266.98 189.015 262.153 189.015 257.294C189.015 254.615 189.015 251.888 189.015 249.183C189.015 246.975 189.293 245.036 189.469 242.855C189.876 237.701 181.86 237.728 181.454 242.855C181.283 244.998 180.995 247.008 181 249.183C181 251.888 181 254.588 181 257.294C181 262.153 181.476 266.98 181.476 271.834C181.476 276.538 182.01 281.199 181.935 285.898C181.871 290.72 181.716 295.595 182.138 300.406C182.592 305.506 182.844 310.666 183.437 315.745C184.046 320.909 185.195 325.994 186.146 331.099C187.097 336.205 188.075 341.279 189.101 346.341C189.635 349.02 190.212 351.661 190.768 354.324C191.243 356.623 191.97 359.066 191.837 361.423C191.527 366.588 199.542 366.566 199.852 361.423C200.156 356.473 198.249 351.051 197.255 346.24C196.211 341.168 195.214 336.087 194.263 330.998C193.311 325.935 192.125 320.861 191.463 315.745C190.8 310.628 190.618 305.496 190.164 300.406C190.047 299.072 189.977 297.727 189.934 296.388C190.127 296.184 190.335 295.981 190.549 295.772C191.796 294.529 192.903 293.153 193.851 291.668C194.829 290.146 196.149 288.887 197.111 287.339C198.072 285.791 198.804 284.226 199.595 282.635C201.3 279.185 202.962 275.761 204.404 272.177C205.847 268.593 207.194 264.859 208.588 261.194C209.393 259.083 210.195 256.969 210.993 254.851C211.346 253.903 211.57 252.912 211.955 251.974C212.334 251.051 212.813 250.173 213.381 249.354C213.772 248.7 211.933 246.89 211.714 247.222Z" stroke="black" stroke-miterlimit="10"/>
<path d="M42.9373 422.679C42.1251 423.498 41.7403 424.639 40.9762 425.513C40.132 426.477 39.2075 427.356 38.374 428.325C37.6633 429.15 36.9847 429.997 36.2954 430.833C36.1957 430.358 36.0708 429.89 35.9213 429.429C35.0984 426.911 34.19 424.43 33.4206 421.891C31.903 416.887 29.9901 411.905 29.1886 406.724C28.4084 401.72 28.8359 396.255 26.5168 391.637C24.1978 387.019 22.3863 381.993 20.5535 377.097C20.069 375.8 19.5899 374.5 19.1161 373.196C19.394 372.543 19.6505 371.878 19.8963 371.203C20.8581 368.439 21.8092 365.664 22.6802 362.867C24.4329 357.279 25.1542 351.466 26.4206 345.766C26.7626 344.223 27.2916 342.723 27.5748 341.169C27.858 339.615 27.9489 337.992 28.2107 336.412C28.2094 336.09 28.1316 335.774 27.9838 335.489C27.836 335.204 27.6226 334.958 27.3611 334.772C27.0084 334.494 26.41 334.317 26.2924 334.922C26.0626 336.299 25.9665 337.692 25.7581 339.074C25.5497 340.457 25.0955 341.807 24.7588 343.178C24.0802 345.916 23.5619 348.702 23.0489 351.472C22.5852 354.34 21.9572 357.178 21.168 359.974C20.3077 362.776 19.3673 365.551 18.4108 368.316C18.2398 368.851 18.0474 369.318 17.8765 369.81C16.6617 366.403 15.4576 362.992 14.2643 359.578C13.3131 356.899 12.2872 354.22 11.4269 351.509C10.6735 349.018 10.075 345.905 8.00174 344.137C4.09567 340.799 -1.61648 346.457 2.33234 349.821C3.12317 350.497 3.6682 353.572 4.14911 354.986C5.02009 357.568 5.9926 360.119 6.90099 362.685C8.5628 367.4 10.1979 372.12 11.9238 376.813C13.7246 381.71 15.7284 386.521 17.6681 391.369C18.4161 393.244 19.597 395.119 20.0566 397.091C20.392 398.71 20.5975 400.352 20.6711 402.004C20.2115 401.522 19.7467 401.045 19.2925 400.557C18.523 399.705 17.7078 398.894 16.8505 398.13C15.993 397.493 15.1807 396.796 14.4192 396.046C14.2054 395.842 13.9263 395.721 13.6317 395.705C13.3371 395.688 13.0462 395.777 12.8109 395.955C12.4261 396.196 11.7422 396.995 12.1964 397.487C12.9994 398.321 13.8639 399.093 14.7826 399.797C15.6716 400.559 16.5105 401.379 17.294 402.25C18.0742 403.075 18.8971 403.858 19.6451 404.709C20.0781 405.144 20.5626 405.524 21.0879 405.84C21.7303 410.389 22.7764 414.871 24.2138 419.234C24.9298 421.484 25.6031 423.75 26.3084 426.006C27.0351 428.341 28.2214 430.704 28.6489 433.11C29.0122 435.172 28.713 437.497 28.7076 439.582C28.7076 442.153 28.7076 444.725 28.7611 447.296C28.8626 452.365 29.3489 457.363 29.7443 462.41C30.5351 472.504 30.5244 482.801 31.7855 492.825C31.515 494.137 31.3984 495.477 31.4381 496.816C31.6198 501.97 39.635 501.997 39.4533 496.816C39.4213 495.917 39.4985 495.018 39.6831 494.137C39.9075 492.862 39.5281 491.834 39.4052 490.612C39.1701 488.292 39.261 485.855 39.0953 483.508C38.7213 478.359 38.5289 473.205 38.1388 468.057C37.332 457.519 36.6747 447.098 36.7389 436.522C36.7389 435.826 36.7389 435.135 36.7389 434.449C38.0587 433.003 39.2556 431.443 40.5327 429.954C41.3449 429.006 42.2426 428.149 43.0709 427.216C43.4851 426.757 43.8587 426.262 44.1876 425.738C44.4344 425.226 44.7392 424.744 45.096 424.302C46.0151 423.279 43.8029 421.811 42.9373 422.679Z" stroke="black" stroke-miterlimit="10"/>
<path d="M77.4594 195.392C77.2842 196.076 76.9951 196.727 76.6045 197.315C76.2518 197.937 75.9633 198.595 75.6694 199.249C75.0068 200.728 74.2694 202.174 73.564 203.637C72.9335 204.939 72.2335 206.219 71.6831 207.559C71.5923 207.789 71.5015 208.014 71.416 208.244C71.2478 206.241 70.9461 204.25 70.5129 202.287C69.4832 197.57 68.1135 192.934 66.4145 188.416C64.6031 183.723 62.6741 179.191 62.2626 174.112C62.0649 171.701 61.8993 169.29 61.7764 166.857C61.6268 164.077 60.8733 161.57 60.2535 158.875C59.0833 153.839 51.3566 155.971 52.5215 161.018C53.0184 163.161 53.6543 165.127 53.7719 167.329C53.8894 169.445 54.0551 171.561 54.21 173.678C54.4255 176.761 54.9628 179.814 55.8131 182.785C55.2337 182.155 54.6201 181.558 53.9749 180.996C52.9785 180.164 52.0361 179.27 51.1536 178.317C50.2559 177.326 49.4116 176.287 48.5299 175.28C47.8513 174.497 45.3773 175.462 46.1468 176.351C47.0017 177.331 47.8246 178.344 48.6956 179.314C49.6022 180.304 50.5732 181.233 51.6024 182.094C53.5799 183.799 55.2454 185.837 56.5238 188.116C56.7268 188.475 57.2718 188.539 57.7955 188.416C60.9214 196.64 63.6305 204.976 63.7962 213.87C63.9725 223.267 64.3305 232.648 64.9183 242.034C65.5649 252.048 65.7198 262.066 66.2862 272.079C66.9114 283.159 67.7343 294.142 67.7023 305.248C67.7023 310.418 75.7175 310.429 75.7175 305.248C75.7442 295.342 75.1831 285.559 74.5205 275.68C73.8793 265.715 73.8098 255.728 73.174 245.758C72.5541 235.964 72.319 226.192 71.8755 216.399C71.8221 215.247 71.7793 214.106 71.7259 212.975C71.7503 212.961 71.7735 212.945 71.7954 212.927C72.7198 211.968 73.1633 210.698 73.6389 209.477C74.2053 208.025 74.964 206.637 75.6427 205.233C76.3213 203.83 77.0319 202.437 77.6732 201.012C78.0045 200.278 78.3357 199.56 78.7419 198.869C79.115 198.277 79.3877 197.627 79.5487 196.945C79.693 196.104 77.5877 194.588 77.4594 195.392Z" stroke="black" stroke-miterlimit="10"/>
<path d="M139.634 138.548C139.362 138.478 138.534 138.162 138.288 138.414C137.257 139.486 136.535 140.68 135.333 141.575C134.131 142.47 133.276 143.691 132.373 144.87C131.619 145.845 130.812 146.767 129.973 147.656C130.396 141.05 130.112 134.503 131.352 127.962C132.041 124.308 132.992 120.665 133.489 116.984C133.986 113.303 134.911 109.457 135.018 105.733C135.173 100.563 127.157 100.563 127.002 105.733C127.002 106.451 126.922 107.185 126.847 107.925C126.473 107.217 126.11 106.499 125.779 105.781C125.189 104.677 124.817 103.469 124.683 102.224C124.646 101.56 124.742 100.901 124.683 100.242C124.578 99.6766 124.421 99.1223 124.213 98.5863C124.026 97.7773 121.435 97.8952 121.541 98.3988C121.745 98.9343 121.902 99.4864 122.012 100.049C122.049 100.713 121.953 101.372 122.012 102.031C122.123 103.207 122.447 104.353 122.968 105.412C123.502 106.59 124.101 107.764 124.737 108.894C125.298 109.896 125.939 110.802 126.067 111.975C126.083 112.081 126.139 112.176 126.222 112.243C126.009 113.512 125.784 114.771 125.608 115.993C125.1 119.449 124.192 122.883 123.54 126.317C122.263 133.046 122.295 139.711 122.033 146.542C121.766 153.506 121.248 160.744 119.794 167.554C118.394 174.111 116.903 181.548 113.558 187.42C110.999 191.92 117.924 195.992 120.505 191.475C123.978 185.373 125.656 177.985 127.211 171.186C128.712 164.629 129.252 157.921 129.749 151.219C131.624 149.461 133.372 147.572 134.98 145.567C135.862 144.425 136.695 143.209 137.86 142.352C138.454 141.939 138.993 141.451 139.463 140.9C139.944 140.305 140.382 139.679 140.922 139.132C140.96 139.02 139.709 138.575 139.634 138.548Z" stroke="black" stroke-miterlimit="10"/>
</svg>
