<svg width="905" height="552" viewBox="0 0 905 552" fill="none" xmlns="http://www.w3.org/2000/svg">
<g clip-path="url(#clip0_531_250)">
<path d="M703.953 511.458C681.713 341.802 679.841 170.153 698.376 0.0644531" stroke="white" stroke-opacity="0.5" stroke-miterlimit="10"/>
<path d="M749.692 521.423C744.35 368.91 798.253 216.204 773.737 65.5195" stroke="white" stroke-opacity="0.5" stroke-miterlimit="10"/>
<path d="M791.594 528.645C805.064 375.342 814.39 221.748 819.57 67.8613" stroke="white" stroke-opacity="0.5" stroke-miterlimit="10"/>
<path d="M793.184 527.176C740.097 379.601 712.123 224.391 710.391 67.8223" stroke="white" stroke-opacity="0.5" stroke-miterlimit="10"/>
<path d="M745.762 458.982C688.628 347.354 655.291 225.376 647.805 100.564" stroke="white" stroke-opacity="0.5" stroke-miterlimit="10"/>
<path d="M403.649 470.913C396.318 325.33 404.266 179.389 427.367 35.416" stroke="white" stroke-opacity="0.5" stroke-miterlimit="10"/>
<path d="M465.75 450.615C461.125 334.881 470.22 219.01 492.852 105.355" stroke="white" stroke-opacity="0.5" stroke-miterlimit="10"/>
<path d="M481.188 506.113C486.272 376.9 505.438 248.601 538.355 123.428" stroke="white" stroke-opacity="0.5" stroke-miterlimit="10"/>
<path d="M586.145 498.596C542.808 362.086 516.977 220.765 509.255 77.9297" stroke="white" stroke-opacity="0.5" stroke-miterlimit="10"/>
<path d="M402.262 440.636C365.672 303.187 345.388 162.016 341.816 19.957" stroke="white" stroke-opacity="0.5" stroke-miterlimit="10"/>
<path d="M265.516 489.12C204.938 367.328 172.852 233.69 171.621 98.0527" stroke="white" stroke-opacity="0.5" stroke-miterlimit="10"/>
<path d="M304.281 528.221C284.02 381.261 261.498 234.628 236.717 88.3203" stroke="white" stroke-opacity="0.5" stroke-miterlimit="10"/>
<path d="M206.613 494.052C163.354 377.749 141.796 254.69 142.981 130.82" stroke="white" stroke-opacity="0.5" stroke-miterlimit="10"/>
<path d="M342.68 415.71C303.777 303.411 271.991 188.838 247.505 72.6523" stroke="white" stroke-opacity="0.5" stroke-miterlimit="10"/>
<path d="M243.547 445.837C183.178 346.747 132.68 242.129 92.7593 133.447" stroke="white" stroke-opacity="0.5" stroke-miterlimit="10"/>
<path d="M820.104 513.697L834.145 93.0312" stroke="white" stroke-opacity="0.5" stroke-miterlimit="10"/>
<path d="M851.267 468.29C862.818 317.256 861.07 165.518 846.042 14.7812" stroke="white" stroke-opacity="0.5" stroke-miterlimit="10"/>
<path d="M832.043 543.476C869.564 365.167 893.731 184.378 904.348 2.57422" stroke="white" stroke-opacity="0.5" stroke-miterlimit="10"/>
<path d="M650.875 513.39C591.511 364.674 557.546 207.294 550.359 47.6367" stroke="white" stroke-opacity="0.5" stroke-miterlimit="10"/>
<path d="M609.051 476.799C518.71 347.722 444.423 208.417 387.787 61.875" stroke="white" stroke-opacity="0.5" stroke-miterlimit="10"/>
<path d="M380.895 493.225C352.291 343.219 329.692 192.268 313.096 40.373" stroke="white" stroke-opacity="0.5" stroke-miterlimit="10"/>
<path d="M302.66 460.757C248.599 319.862 205.529 175.103 173.828 27.7441" stroke="white" stroke-opacity="0.5" stroke-miterlimit="10"/>
<path d="M283.422 522.914C188.078 409.862 90.1211 291.531 54.2168 148.867" stroke="white" stroke-opacity="0.5" stroke-miterlimit="10"/>
<path d="M221.371 506.296C123.293 379.942 48.5745 237.538 0.642569 85.6172" stroke="white" stroke-opacity="0.5" stroke-miterlimit="10"/>
<path d="M468.637 463.319L362.256 65.0938" stroke="white" stroke-opacity="0.5" stroke-miterlimit="10"/>
<path d="M676.566 500.824C626.161 344.437 599.649 181.526 597.901 17.4453" stroke="white" stroke-opacity="0.5" stroke-miterlimit="10"/>
<path d="M723.102 551.806C667.573 375.467 631.294 193.79 614.879 9.86133" stroke="white" stroke-opacity="0.5" stroke-miterlimit="10"/>
</g>
<defs>
<clipPath id="clip0_531_250">
<rect width="905" height="552" fill="white" transform="matrix(-1 0 0 1 905 0)"/>
</clipPath>
</defs>
</svg>
