<svg width="122" height="50" viewBox="0 0 122 50" fill="none" xmlns="http://www.w3.org/2000/svg">
<path d="M61.1891 32.4324C61.6443 32.3366 62.0813 32.1313 62.5546 32.0628C63.3694 31.9488 64.1978 31.9305 65.0148 31.8027C65.7257 31.6683 66.4498 31.6178 67.1724 31.6522C68.2534 31.7366 69.3367 31.9921 70.4245 32.0583C71.0322 32.0948 71.476 31.9282 72.0404 31.8484C73.1578 31.6887 74.1774 31.9465 75.2038 32.3047C75.6385 32.4575 76.1142 32.6697 76.5694 32.7792C76.9016 32.8613 77.2521 32.7792 77.5776 32.8499C77.903 32.9206 79.0455 33.2263 79.1934 33.5731C78.9658 34.0887 78.5607 34.7868 78.1033 35.1336C77.8962 35.291 77.6731 35.5305 77.4797 35.6651C77.2862 35.7997 77.1429 35.7131 77.0245 35.9138C77.4592 35.6035 77.9895 35.7016 78.4947 35.7016C79 35.7016 79.7419 35.5602 80.2153 35.7267C80.2153 35.9731 79.9877 36.183 79.8898 36.4112C79.7137 36.8488 79.5084 37.2741 79.2753 37.6842C78.9851 38.1007 78.6492 38.4833 78.274 38.8249C77.0473 39.9656 75.4792 40.5861 74.1774 41.599C72.9257 42.5664 71.5079 43.1048 70.0468 43.7025C68.7157 44.2109 67.3535 44.633 65.9684 44.9664C65.2177 45.1234 64.4574 45.2309 63.6926 45.2881C62.7253 45.409 61.7695 45.5869 60.8 45.685C59.6006 45.8059 58.358 45.7238 57.1586 45.7238C55.5473 45.7238 53.9246 45.7763 52.3133 45.7238C49.6301 45.6485 47.1995 45.0804 44.6664 44.2774C43.0005 43.7481 41.3983 42.9086 39.8712 42.0736C39.6306 41.9065 39.3564 41.7944 39.0678 41.7451C38.6627 41.7222 38.2485 41.9869 37.848 42.0371C37.3928 42.0964 36.8421 41.9321 36.4051 42.0371C36.2503 42.0759 36.2025 42.2059 36.0501 42.2515C35.7678 42.3314 35.3673 42.2356 35.0646 42.2401C34.1338 42.2561 33.0323 42.742 32.2972 43.3055C31.2979 44.0453 30.1671 44.5873 28.9653 44.9025C28.8993 44.5557 29.2453 44.1405 29.3704 43.8302C29.6981 43.0112 29.7505 42.1009 29.8916 41.234C30.1192 39.7922 30.1192 38.3298 30.2216 36.8697C30.2762 36.0804 30.2648 35.2956 30.2648 34.5039C30.2326 34.0659 30.2265 33.6263 30.2466 33.1876C30.3149 32.624 30.324 32.6606 30.9294 32.5419C31.1706 32.494 31.6121 32.3343 31.8397 32.4529C32.3336 32.6925 32.9253 33.3815 33.3873 33.7031C34.5112 34.4751 35.5797 35.3251 36.5849 36.2469C36.8816 36.564 37.2489 36.8063 37.6568 36.9541C38.4465 37.2165 39.0223 36.7009 39.6755 36.2811C40.5449 35.729 41.3665 35.04 42.2791 34.5655C43.2304 34.0727 44.2773 33.9244 45.3037 33.6712C47.7229 33.0712 50.083 32.2727 52.5386 31.8461C54.1136 31.5825 55.7013 31.402 57.2952 31.3054C58.2817 31.2042 59.2776 31.2418 60.2538 31.4172C60.7089 31.5153 61.1891 31.4628 61.6193 31.5564C61.9106 31.6202 62.541 31.5769 62.7572 31.8461" stroke="white" stroke-miterlimit="10"/>
<path d="M80.6606 13.8262C80.0438 13.8787 79.4589 13.6597 78.8399 13.6232C77.8818 13.5638 77.0056 13.6688 76.0543 13.4452C75.5935 13.3694 75.1434 13.2384 74.7138 13.0551C74.5044 12.9456 74.3451 12.7266 74.1266 12.6604C73.7238 12.5418 73.2163 12.8521 72.7839 12.8612C72.3938 12.892 72.0019 12.892 71.6118 12.8612C71.4229 12.8338 70.9131 12.5304 70.7515 12.6581C70.5126 12.8521 70.6559 13.7258 70.6559 14.0521C70.6337 14.621 70.6966 15.19 70.8426 15.7403C70.9221 15.9959 70.9882 16.2556 71.0406 16.5182C71.0832 16.6615 71.1333 16.8024 71.1908 16.9403C71.3364 17.4627 71.1589 17.9122 71.4502 18.4255C71.8599 18.4757 72.2604 18.0856 72.6837 18.0445C72.9773 18.0171 73.2481 18.0856 73.5394 18.0126C73.8308 17.9396 74.1152 17.8415 74.4043 17.7662C74.6933 17.6909 74.9755 17.6977 75.2691 17.6247C75.8608 17.481 76.2113 17.2232 76.8053 17.3806C77.1185 17.49 77.4563 17.5082 77.7794 17.4331C78.1139 17.3418 78.3347 17.2049 78.6897 17.3122C78.6601 17.9327 79.6729 18.3365 80.1167 18.6331C80.6492 18.989 81.1704 19.4042 81.7849 19.5958C83.162 20.0046 84.5933 20.2 86.0293 20.1753C88.1231 20.1616 89.9757 21.3708 92.0672 21.5077C93.4141 21.6107 94.7677 21.4337 96.0431 20.9875C97.3585 20.5312 98.6103 19.9221 99.912 19.3905C101.539 18.7358 103.194 18.3936 104.889 17.9989C105.67 17.8186 106.414 17.5426 107.188 17.3259C108.005 17.0977 108.89 16.9312 109.691 16.6597C110.391 16.4089 111.039 16.0315 111.603 15.5464C111.916 15.2798 112.192 14.973 112.425 14.6338C112.684 14.1775 112.336 14.1775 111.947 14.0498C111.026 13.7493 110.081 13.528 109.122 13.3882C109.122 13.16 110.108 12.6741 110.31 12.5098C110.5 12.3667 110.625 12.1554 110.662 11.9207C110.698 11.686 110.641 11.4464 110.504 11.2528C110.162 10.7623 109.607 10.6026 109.093 10.3653C105.822 8.85277 102.054 8.90524 98.5351 8.95087C96.8192 8.9714 95.1419 8.76152 93.4327 8.95087C92.5428 9.04669 91.6461 8.90296 90.7631 8.98966C90.1122 9.05353 89.4363 9.24745 88.774 9.33414C87.8824 9.43139 87.0002 9.60155 86.1363 9.8429C84.4294 10.3676 82.8181 11.2254 81.2091 11.976C80.6281 12.2672 80.0841 12.6272 79.5887 13.0483C79.2996 13.2764 78.7352 13.6072 78.7329 14.0087" stroke="white" stroke-miterlimit="10"/>
<path d="M17.822 13.6537C15.2279 13.1019 12.6678 11.9634 10.0786 11.5359C9.08161 11.3718 7.9201 11.5359 6.90378 11.5359C5.99877 11.5359 4.84693 11.352 4 11.6204C4.25166 12.6147 5.4519 13.3107 5.61645 14.474C5.781 15.6374 6.06652 16.741 6.32302 17.9541C6.5916 19.0232 6.75376 20.1175 6.80698 21.2203C6.8398 21.6861 6.94776 22.1431 7.12641 22.5726C7.24256 23.0399 7.12639 23.5271 7.50389 23.8701C8.10884 24.3673 10.64 23.2984 11.3417 22.9951C12.2758 22.5875 13.1614 22.4632 14.0713 21.9412C15.6829 21.0264 17.1057 19.6145 19.0609 19.5449C20.566 19.4902 21.8195 20.1415 23.2472 20.4C24.3652 20.6039 25.6961 20.3702 26.8382 20.4C28.3578 20.4 29.713 19.9675 31.2326 19.9824C32.7522 19.9973 34.359 20.0222 35.9174 19.9824C37.7758 19.9426 39.4406 19.1969 41.2409 18.8191C42.7461 18.5059 44.1447 17.9391 45.6208 17.5713C47.7539 17.0419 49.8431 16.3404 51.8688 15.4733C52.5512 15.175 53.1464 14.7922 53.8046 14.5039C54.2886 14.3 54.8838 14.3547 55 13.7581C53.5612 13.4878 52.1058 13.3217 50.6443 13.261C49.4925 13.261 48.5681 12.7638 47.4115 12.8533C47.8422 12.2965 49.3473 11.8093 49.9571 11.6105C50.5669 11.4116 52.8609 11.2973 52.9577 10.3974C52.2414 10.1787 51.4719 10.2881 50.7411 10.0991C50.0724 9.93676 49.3856 9.86654 48.6988 9.89033C46.9565 9.89033 45.3401 9.45782 43.5881 9.47273C43.2421 9.50741 42.8937 9.50741 42.5476 9.47273C42.2669 9.41307 42.0637 9.18936 41.8604 9.1297C41.1483 8.99834 40.4223 8.96658 39.7019 9.03525H35.4092C32.4183 9.03525 29.6791 9.10485 26.8285 9.82571C25.1451 10.2615 23.5003 10.8419 21.9115 11.5607C21.0742 11.9336 20.2515 12.2916 19.4287 12.729C18.9448 12.9925 17.8365 14.1211 17.4058 14.0813" stroke="white" stroke-miterlimit="10"/>
</svg>
