<svg width="182" height="32" viewBox="0 0 182 32" fill="none" xmlns="http://www.w3.org/2000/svg">
<path d="M27.6819 19.8578V20.5215C27.6819 27.4336 22.9912 32 14.5549 32C5.02759 32 0 26.7698 0 16C0 5.53961 5.13317 0 14.58 0C22.9912 0 27.6819 4.49158 27.6819 11.3437V12.1422H21.9203V11.3437C21.9203 7.31129 19.2456 4.61135 14.58 4.61135C9.44684 4.61135 6.14371 7.66563 6.14371 13.34V18.4654C6.14371 24.2296 9.16027 27.3737 14.58 27.3737C19.1802 27.3737 21.9454 25.2027 21.9454 20.5065V19.8578H27.6819Z" fill="white"/>
<path d="M34.1094 0.498047H39.9162V14.4718C39.9095 14.5607 39.9221 14.65 39.9533 14.7336C39.9845 14.8172 40.0336 14.8931 40.0971 14.9561C40.1606 15.0191 40.237 15.0678 40.3212 15.0988C40.4054 15.1298 40.4954 15.1423 40.5849 15.1356H53.7572C53.8467 15.1423 53.9367 15.1298 54.0209 15.0988C54.1051 15.0678 54.1815 15.0191 54.245 14.9561C54.3085 14.8931 54.3576 14.8172 54.3888 14.7336C54.42 14.65 54.4326 14.5607 54.4259 14.4718V0.498047H60.2277V31.5099H54.4259V16.3533C54.4287 16.2654 54.4133 16.1779 54.3806 16.0961C54.348 16.0143 54.2989 15.94 54.2362 15.8778C54.1736 15.8156 54.0987 15.7668 54.0163 15.7344C53.934 15.7021 53.8458 15.6868 53.7572 15.6896H40.5849C40.4962 15.686 40.4076 15.7008 40.3249 15.7329C40.2422 15.765 40.167 15.8138 40.1042 15.8762C40.0414 15.9385 39.9923 16.0131 39.9599 16.0952C39.9276 16.1773 39.9127 16.2652 39.9162 16.3533V31.5099H34.1094V0.498047Z" fill="white"/>
<path d="M68.4414 0.498047H89.2456V5.48869H74.2483V14.4718C74.2385 14.5619 74.2487 14.6529 74.2782 14.7386C74.3078 14.8242 74.3559 14.9024 74.4191 14.9676C74.4824 15.0328 74.5594 15.0835 74.6445 15.1159C74.7296 15.1484 74.8209 15.1619 74.9119 15.1556H88.6171V15.6896H74.9119C74.8232 15.686 74.7346 15.7008 74.6519 15.7329C74.5692 15.765 74.494 15.8138 74.4312 15.8762C74.3684 15.9385 74.3193 16.0131 74.2869 16.0952C74.2546 16.1773 74.2397 16.2652 74.2432 16.3533V26.5043H89.693V31.4949H68.4414V0.498047Z" fill="white"/>
<path d="M95.7227 0.498047H110.72C116.642 0.498047 120.187 3.49243 120.187 9.44128C120.187 15.3901 116.482 17.6409 110.323 17.6409H105.989L107.09 19.2329C107.196 19.4579 107.368 19.646 107.583 19.7725C107.798 19.8989 108.047 19.9579 108.297 19.9416H113.43L121.424 31.5099H114.787L105.738 18.3047C105.335 17.6808 105.2 17.6409 104.621 17.6409H102.208C102.119 17.6374 102.031 17.6522 101.948 17.6843C101.865 17.7164 101.79 17.7651 101.728 17.8275C101.665 17.8898 101.616 17.9644 101.583 18.0465C101.551 18.1287 101.536 18.2166 101.54 18.3047V31.5099H95.7227V0.498047ZM101.524 4.98962V16.4681C101.518 16.557 101.53 16.6463 101.562 16.7299C101.593 16.8134 101.642 16.8893 101.705 16.9524C101.769 17.0154 101.845 17.0641 101.929 17.095C102.014 17.126 102.104 17.1386 102.193 17.1319H109.604C112.816 17.1319 114.335 15.5798 114.335 12.8299V9.28657C114.335 6.67147 112.726 5.03454 109.689 5.03454L101.524 4.98962Z" fill="white"/>
<path d="M124.742 16C124.742 5.53961 129.966 0 139.383 0C148.799 0 154.028 5.40487 154.028 16C154.028 26.4803 148.759 32 139.383 32C130.006 32 124.742 26.5901 124.742 16ZM130.72 13.34V18.4654C130.72 24.2745 134.023 27.3737 139.377 27.3737C144.732 27.3737 148.045 24.2895 148.045 18.4654V13.34C148.045 7.66563 144.566 4.61135 139.383 4.61135C134.199 4.61135 130.72 7.66563 130.72 13.34Z" fill="white"/>
<path d="M166.258 5.48869H156.258V0.498047H181.999V5.48869H172.06V31.5099H166.258V5.48869Z" fill="white"/>
</svg>
