<svg width="51" height="22" viewBox="0 0 51 22" fill="none" xmlns="http://www.w3.org/2000/svg">
<path d="M19.0333 13.3298V13.7753C19.0333 18.4151 15.8081 21.4804 10.0075 21.4804C3.45683 21.4804 0 17.9695 0 10.7402C0 3.71853 3.52942 0 10.0248 0C15.8081 0 19.0333 3.01502 19.0333 7.61461V8.15061H15.0718V7.61461C15.0718 4.90779 13.2327 3.09542 10.0248 3.09542C6.49538 3.09542 4.22424 5.14564 4.22424 8.95462V12.3951C4.22424 16.2644 6.29834 18.3749 10.0248 18.3749C13.1878 18.3749 15.089 16.9176 15.089 13.7653V13.3298H19.0333Z" fill="white"/>
<path d="M23.4531 0.334229H27.4458V9.7143C27.4411 9.77397 27.4498 9.8339 27.4713 9.89001C27.4927 9.94611 27.5264 9.99706 27.5701 10.0394C27.6137 10.0817 27.6663 10.1144 27.7242 10.1351C27.7821 10.1559 27.844 10.1644 27.9055 10.1599H36.9624C37.024 10.1644 37.0858 10.1559 37.1437 10.1351C37.2016 10.1144 37.2542 10.0817 37.2978 10.0394C37.3415 9.99706 37.3752 9.94611 37.3967 9.89001C37.4181 9.8339 37.4268 9.77397 37.4222 9.7143V0.334229H41.4113V21.1513H37.4222V10.9773C37.4241 10.9182 37.4135 10.8595 37.3911 10.8046C37.3686 10.7497 37.3349 10.6998 37.2918 10.6581C37.2487 10.6163 37.1972 10.5836 37.1406 10.5618C37.0839 10.5401 37.0233 10.5298 36.9624 10.5317H27.9055C27.8445 10.5293 27.7836 10.5393 27.7267 10.5608C27.6699 10.5824 27.6182 10.6151 27.575 10.657C27.5318 10.6988 27.498 10.7489 27.4758 10.804C27.4536 10.8591 27.4433 10.9181 27.4458 10.9773V21.1513H23.4531V0.334229Z" fill="white"/>
<ellipse cx="48.3711" cy="19.4398" rx="2.62892" ry="2.5602" fill="white"/>
</svg>
