<svg width="554" height="458" viewBox="0 0 554 458" fill="none" xmlns="http://www.w3.org/2000/svg">
<path d="M17.818 326.627C15.6279 325.054 14.0467 321.005 13.0742 318.591C12.3292 316.481 12.1708 314.21 12.6157 312.018C12.8719 310.472 13.0408 308.913 13.1217 307.348C13.2186 306.671 13.3991 306.008 13.6593 305.374C13.848 304.29 13.8984 303.185 13.8095 302.088C13.8095 298.495 13.1375 295.177 13.1375 291.576C13.1375 290.601 12.8686 289.013 13.1375 288.069C13.2719 287.535 13.9281 287.354 13.9281 286.795C13.9281 286.08 12.9161 285.223 12.505 284.791C10.7814 282.982 7.61099 282.432 5.68186 280.859C4.58289 279.979 3.63415 278.862 2.47984 278.005C1.0409 276.936 0.811615 275.261 1.11996 273.508C1.5548 271.063 2.57472 268.61 3.32581 266.196C3.64997 265.15 4.01364 263.216 4.64614 262.343C5.27864 261.471 6.75712 260.92 7.69006 260.22C13.0663 256.195 22.5934 256.085 29.037 257.406C31.3605 257.814 33.6574 258.36 35.9154 259.041C36.88 259.356 37.6389 259.922 38.6035 260.158C39.3467 260.338 40.0187 260.063 40.4931 260.834C40.7856 261.321 40.5801 262.312 40.7224 262.878C40.8963 263.586 41.1256 264.105 41.2442 264.836C41.5775 266.391 41.7994 267.967 41.9083 269.553C41.9558 272.014 42.2404 274.679 41.426 277.007C40.1531 280.616 38.0975 283.485 34.5634 285.176C33.5849 285.605 32.6389 286.104 31.733 286.67C31.061 287.118 30.9028 286.607 30.5075 287.456C30.2861 287.912 30.5549 289.539 30.5549 290.027C30.4642 291.184 30.4642 292.345 30.5549 293.502C30.6814 294.233 31.1637 294.752 31.2902 295.491C31.4167 296.23 31.2112 297.064 31.4088 297.929C32.223 301.211 32.6214 304.581 32.5948 307.961C32.5948 309.636 33.2035 310.917 33.2747 312.576C33.3538 314.4 33.2352 316.248 33.2747 318.08C33.2936 319.408 32.9318 320.713 32.2317 321.844C31.5317 322.975 30.5222 323.883 29.3216 324.464C26.4595 325.958 24.4197 325.801 21.2335 326.037C20.1108 326.108 19.1462 326.674 18.071 326.627C17.8733 326.627 16.719 326.005 16.3079 325.958L17.3041 325.408" stroke="black" stroke-width="0.792086" stroke-miterlimit="10"/>
<path d="M391.843 64.8603C391.843 61.4008 391.4 58.0357 391.092 54.5841C390.815 51.4391 391.092 47.6337 389.336 44.9054C388.445 43.67 387.725 42.3214 387.194 40.8956C386.451 38.7334 384.98 37.5698 383.644 35.785C381.731 33.2219 380.039 29.5973 376.481 29.6602C373.982 29.7074 370.1 29.9668 368.266 27.8518C367.207 26.6174 367.009 25.8312 368.132 24.6597C369.254 23.4882 370.377 22.301 371.508 21.0587C372.298 20.2017 373.382 19.5255 374.022 18.5191C374.662 17.5127 374.718 16.0189 375.793 15.3742C376.425 14.981 376.837 15.2719 377.501 15.0911C378.165 14.9103 378.592 14.4385 379.129 14.3599C380.568 14.1633 380.086 14.6036 380.497 15.3977C380.724 15.8501 380.924 16.3147 381.098 16.7894C381.414 18.2125 380.853 19.7221 381.462 21.0508C382.071 22.3796 383.675 23.0479 384.853 23.9599C386.482 25.2101 386.901 27.1049 388.095 28.7167C389.06 30.0297 390.008 31.327 390.925 32.6479C391.961 34.2204 393.297 35.2347 394.531 36.5791C395.639 37.8995 396.489 39.4141 397.037 41.045C397.448 42.4838 396.46 44.929 397.828 45.9904C399.409 43.2465 398.5 39.0322 398.5 35.9816V28.9919C398.5 26.6332 398.5 24.3452 398.5 22.0258C398.5 19.4469 399.172 17.9688 400.192 15.7358C400.721 14.5643 400.563 14.4778 399.931 13.6287C398.717 12.2394 397.185 11.1608 395.464 10.4837C393.455 9.90978 391.005 10.2007 389.139 9.46162C388.19 9.09208 386.427 7.35449 386.427 6.13581C386.427 4.68912 388.672 3.3132 389.811 2.81787C392.787 1.61896 395.977 1.03575 399.188 1.10386C402.303 1.10386 405.607 0.726461 408.675 1.41049C410.255 1.7101 411.787 2.22053 413.229 2.92794C414.162 3.41541 415.846 3.60411 416.621 4.22524C417.83 5.19232 418.036 8.42378 418.431 9.88619C419.633 14.3049 415.15 16.7108 411.94 18.5349C409.956 19.6749 408.849 19.5806 408.549 22.2381C408.122 25.9806 409.149 29.959 408.414 33.6622C407.624 37.5934 407.908 41.7841 407.892 45.8882C407.958 47.7451 408.137 49.5962 408.43 51.4312C408.588 52.8543 408.043 54.1202 407.892 55.559C407.608 58.3109 406.928 60.0956 404.58 61.6681C401.227 63.9089 397.164 64.1527 393.21 64.192" stroke="black" stroke-width="0.792086" stroke-miterlimit="10"/>
<path d="M405.73 173.742C403.026 173.813 400.291 173.011 397.721 172.398C395.42 171.847 393.294 171.808 391.712 169.921C390.131 168.034 389.53 165.597 387.87 163.631C386.21 161.665 383.063 159.377 382.391 156.838C381.719 154.298 383.063 151.861 381.719 149.534C380.928 148.095 379.481 147.073 378.335 145.885C377.189 144.698 376.524 143.377 375.354 142.229C373.504 140.421 371.298 137.307 368.673 136.631C367.306 136.285 365.693 136.71 364.293 136.631C362.976 136.454 361.671 136.191 360.388 135.845C360.633 134.391 363.827 132.283 364.997 131.489C368.08 129.398 371.583 128.234 374.864 126.528C375.813 126.041 376.445 125.089 377.521 124.783C378.596 124.476 379.418 124.783 380.375 124.555C382.211 124.016 384 123.332 385.727 122.51C386.998 122.082 388.344 121.919 389.68 122.031C391.262 122.031 394.219 121.512 395.681 122.164C395.405 122.746 394.891 122.715 394.503 123.328C394.289 123.873 394.135 124.44 394.045 125.019C393.568 126.192 393.225 127.416 393.025 128.667C392.874 131.411 392.329 133.864 392.376 136.639C392.376 138.023 391.799 138.998 391.673 140.295C391.546 141.593 392.242 142.654 392.376 143.943C392.693 146.947 394.582 149.258 395.879 151.916C396.567 153.308 397.658 154.534 398.251 155.934C398.741 157.066 398.947 158.292 399.516 159.369C400.575 161.359 401.382 163.371 403.706 164.401C405.833 165.345 409.778 165.368 410.339 168.183C410.406 169.208 410.201 170.233 409.746 171.155C409.519 171.77 409.159 172.327 408.692 172.789C408.225 173.251 407.662 173.606 407.043 173.828" stroke="black" stroke-width="0.792086" stroke-miterlimit="10"/>
<path d="M103.588 315.391C103.248 313.08 101.042 312.05 100.07 310.116C99.1477 308.133 98.7504 305.949 98.9153 303.771C99.0013 301.923 98.5394 300.091 97.587 298.503C96.5039 296.93 95.5077 296.097 93.5707 296.144C91.7137 296.258 89.8625 295.844 88.2339 294.949C86.9689 294.32 84.4706 293.809 83.6878 292.661C83.6009 292.527 83.0079 290.695 83 290.656C83.0506 289.829 83.2856 289.023 83.6878 288.297C84.4785 287.039 86.1309 285.939 87.2298 284.822C88.479 283.556 89.5306 283.446 91.183 282.754C93.0014 281.968 94.9464 280.907 96.9466 280.82C100.283 280.687 104.489 279.043 107.628 280.82C109.297 281.689 110.829 282.796 112.174 284.107C112.736 284.941 113.186 285.845 113.51 286.796C113.838 287.774 114.102 288.772 114.301 289.783C114.388 290.719 113.74 291.482 113.637 292.441C113.534 293.4 113.732 294.092 113.352 295.098C113.012 295.911 112.616 296.699 112.166 297.457C111.376 298.841 111.376 298.762 111.629 300.351C112.19 303.496 113.676 306.129 113.66 309.361C113.66 311.366 113.573 313.292 112.506 314.865C111.542 316.327 108.972 316.94 107.32 316.704C104.465 316.296 104.9 314.652 103.643 312.695" stroke="black" stroke-width="0.792086" stroke-miterlimit="10"/>
<path d="M234.226 146.241C233.886 143.93 231.68 142.9 230.707 140.966C229.785 138.983 229.388 136.799 229.553 134.621C229.639 132.773 229.177 130.942 228.225 129.353C227.142 127.78 226.145 126.947 224.208 126.994C222.351 127.108 220.5 126.694 218.872 125.799C217.607 125.17 215.108 124.659 214.326 123.511C214.239 123.378 213.646 121.546 213.638 121.506C213.688 120.679 213.923 119.873 214.326 119.148C215.116 117.89 216.769 116.789 217.868 115.672C219.117 114.407 220.168 114.296 221.821 113.605C223.639 112.818 225.584 111.757 227.584 111.67C230.921 111.537 235.127 109.893 238.266 111.67C239.935 112.539 241.466 113.646 242.812 114.957C243.374 115.791 243.823 116.695 244.148 117.646C244.475 118.624 244.739 119.622 244.939 120.634C245.026 121.569 244.377 122.332 244.274 123.291C244.172 124.25 244.369 124.942 243.99 125.949C243.65 126.761 243.253 127.549 242.804 128.307C242.013 129.691 242.013 129.612 242.266 131.201C242.828 134.346 244.314 136.98 244.298 140.211C244.298 142.216 244.211 144.142 243.144 145.715C242.179 147.177 239.61 147.79 237.957 147.554C235.103 147.146 235.538 145.502 234.281 143.545" stroke="black" stroke-width="0.792086" stroke-miterlimit="10"/>
<path d="M111.609 197.814C109.696 196.147 108.953 192.098 108.447 189.802C108.079 188.115 108.079 186.37 108.447 184.683C108.66 183.897 110.162 181.861 109.609 180.917C109.055 179.974 105.403 179.384 104.256 178.724C103.73 178.368 103.172 178.063 102.588 177.812C101.734 177.482 100.287 177.529 99.5758 176.923C98.1132 175.681 99.0936 174.164 100.098 173.094C102.359 170.736 106.241 169.58 109.269 168.597C113.704 167.158 119.057 167.913 123.603 168.534C125.137 168.746 126.916 168.322 128.181 169.407C129.129 170.232 130.149 172.552 129.533 173.778C128.916 175.005 127.279 175.791 126.323 176.711C126.038 176.986 125.769 177.497 125.532 177.765C125.295 178.032 124.741 177.851 124.512 178.04C124.001 178.399 123.545 178.83 123.16 179.321C122.37 180.854 123.026 184.133 123.026 185.863C123.093 187.65 122.917 189.438 122.504 191.178C122.345 192.168 122.298 193.173 122.362 194.173C122.362 195.502 122.164 195.439 121.524 196.469C120.537 198.07 119.399 199.574 118.124 200.959C116.811 202.374 116.44 202.775 114.961 201.462C113.91 200.534 111.127 198.82 111.625 197.145" stroke="black" stroke-width="0.792086" stroke-miterlimit="10"/>
<path d="M534.888 202.807C532.975 201.14 532.232 197.091 531.726 194.795C531.358 193.109 531.358 191.363 531.726 189.677C531.939 188.89 533.442 186.854 532.888 185.911C532.335 184.967 528.682 184.377 527.536 183.717C527.01 183.361 526.451 183.056 525.867 182.805C525.014 182.475 523.567 182.522 522.855 181.916C521.392 180.674 522.373 179.157 523.377 178.087C525.638 175.729 529.52 174.573 532.548 173.59C536.984 172.151 542.336 172.906 546.882 173.527C548.416 173.74 550.195 173.315 551.46 174.4C552.409 175.226 553.429 177.545 552.812 178.771C552.195 179.998 550.559 180.784 549.602 181.704C549.317 181.979 549.049 182.49 548.811 182.758C548.574 183.025 548.021 182.844 547.791 183.033C547.28 183.392 546.825 183.824 546.44 184.314C545.649 185.848 546.305 189.126 546.305 190.856C546.372 192.643 546.197 194.431 545.783 196.171C545.625 197.161 545.577 198.166 545.641 199.167C545.641 200.495 545.443 200.432 544.803 201.462C543.817 203.064 542.678 204.567 541.403 205.952C540.091 207.367 539.719 207.768 538.241 206.455C537.189 205.527 534.406 203.813 534.904 202.139" stroke="black" stroke-width="0.792086" stroke-miterlimit="10"/>
<path d="M485.412 454.977C485.412 453.686 485.412 452.395 485.412 451.104C485.47 449.798 485.67 448.502 486.009 447.238C486.25 445.986 485.745 444.557 486.009 443.335C486.395 442.307 486.931 441.339 487.6 440.463C488.291 439.362 488.814 438.168 489.152 436.918C489.478 435.627 489.035 434.328 489.26 433.045C489.47 431.876 489.811 431.013 489.935 429.806C490.06 428.599 490.711 428.095 491.099 427.094C492.193 424.543 491.247 423.68 489.462 421.915C488.857 421.319 488.252 420.739 487.662 420.135C487.008 419.593 486.298 419.119 485.543 418.722C484.933 418.214 484.27 417.771 483.565 417.401C482.851 417.035 482.18 416.595 481.563 416.087C480.949 415.649 480.458 415.065 480.135 414.391C479.809 413.352 480.182 411.61 480.135 410.487C480.135 409.128 480.81 408.073 480.81 406.767C483.722 405.569 486.817 404.856 489.966 404.659C492.03 404.567 493.846 404.078 495.833 404.04C497.695 404.002 499.557 404.04 501.412 404.04C502.415 403.987 503.42 403.987 504.423 404.04C505.369 404.139 506.075 404.575 506.991 404.735C508.838 405.056 510.793 404.995 512.578 405.644C513.354 405.927 514.231 406.408 515.007 406.775C516.248 407.355 517.986 407.829 519.111 408.57C520.237 409.311 520.555 410.258 521.16 411.144C522.215 412.672 523.806 413.604 524.714 415.285C525.017 415.805 525.235 416.37 525.358 416.958C525.498 417.523 525.878 418.142 525.971 418.63C526.227 420.044 524.737 422.083 523.721 423.038C520.322 426.231 515.798 427.621 511.228 428.515C509.916 428.783 506.618 428.653 505.796 429.76C504.973 430.868 505.167 434.076 505.074 435.314C505.014 437.044 505.199 438.775 505.625 440.455C506.269 443.908 505.361 447.651 503.879 450.668C503.328 451.799 503.034 453.136 501.932 453.915C500.584 454.799 499.073 455.417 497.485 455.733C495.262 456.453 492.949 456.867 490.61 456.963C489.524 456.963 488.415 457.047 487.336 456.963C486.257 456.879 485.241 456.344 484.054 456.199C484.597 454.518 486.482 453.739 486.676 451.745" stroke="black" stroke-width="0.792086" stroke-miterlimit="10"/>
<path d="M480.453 119.326C480.453 117.997 480.453 116.668 480.453 115.34C480.513 113.996 480.717 112.662 481.062 111.361C481.307 110.072 480.793 108.601 481.062 107.343C481.456 106.285 482.002 105.29 482.683 104.387C483.387 103.255 483.92 102.026 484.264 100.739C484.596 99.4103 484.146 98.0737 484.375 96.7528C484.588 95.5498 484.936 94.6614 485.063 93.4191C485.189 92.1769 485.853 91.6579 486.249 90.628C487.363 88.0019 486.399 87.1135 484.58 85.2972C483.964 84.684 483.347 84.0864 482.746 83.4653C482.079 82.9071 481.356 82.4196 480.588 82.0107C479.966 81.4876 479.29 81.0317 478.572 80.6505C477.844 80.2746 477.16 79.8211 476.532 79.2982C475.907 78.8474 475.406 78.2471 475.077 77.5527C474.745 76.4835 475.124 74.6908 475.077 73.535C475.077 72.1355 475.765 71.0505 475.765 69.706C478.732 68.4725 481.885 67.7391 485.094 67.536C487.197 67.4417 489.047 66.9385 491.071 66.8992C492.969 66.8598 494.866 66.8992 496.756 66.8992C497.778 66.8442 498.802 66.8442 499.824 66.8992C500.788 67.0014 501.508 67.4495 502.441 67.6146C504.322 67.9449 506.315 67.882 508.133 68.5503C508.924 68.8412 509.817 69.3365 510.608 69.7139C511.873 70.3114 513.644 70.7989 514.79 71.5616C515.937 72.3242 516.261 73.2992 516.877 74.2112C517.953 75.7837 519.573 76.7429 520.498 78.4726C520.808 79.0084 521.029 79.5896 521.155 80.1945C521.297 80.7763 521.684 81.4132 521.779 81.9164C522.04 83.3709 520.522 85.4702 519.486 86.453C516.024 89.7395 511.414 91.1705 506.757 92.0904C505.421 92.3656 502.061 92.2319 501.223 93.3719C500.385 94.512 500.583 97.8142 500.488 99.0879C500.426 100.869 500.615 102.65 501.049 104.379C501.705 107.933 500.78 111.786 499.27 114.891C498.709 116.055 498.408 117.431 497.286 118.233C495.912 119.143 494.373 119.779 492.755 120.104C490.49 120.845 488.133 121.271 485.75 121.37C484.644 121.37 483.513 121.457 482.414 121.37C481.315 121.284 480.279 120.733 479.07 120.584C479.623 118.854 481.544 118.052 481.742 116" stroke="black" stroke-width="0.792086" stroke-miterlimit="10"/>
<path d="M238.689 430.525C238.625 427.789 238.376 425.061 237.944 422.358C237.956 421.189 237.725 420.029 237.268 418.952C236.66 417.801 236.395 417.977 236.209 416.581C235.807 414.518 235.532 412.433 235.386 410.336C235.386 408.297 234.533 406.657 234.553 404.569C234.553 401.115 235.219 396.763 234.366 393.435C233.916 391.689 233.69 389.405 232.112 388.264C231.299 387.678 230.417 387.688 229.731 386.868C229.338 386.08 229.01 385.26 228.751 384.419C227.476 381.54 227.349 376.369 227.996 373.246C228.378 371.382 229.358 370.211 230.407 368.718C231.113 367.742 231.23 367.098 232.445 366.991C234.151 366.835 234.239 368.133 235.101 369.216C235.964 370.299 237.169 370.816 238.336 371.626C239.502 372.436 239.218 372.28 239.512 373.636C240.03 375.811 240.306 378.037 240.335 380.272C240.335 384.107 240.335 387.951 240.335 391.786C240.335 395.914 240.335 400.032 240.335 404.15C240.442 406.086 240.704 408.012 241.119 409.907C241.296 411.195 241.962 412.219 242.021 413.566C242.08 414.913 241.766 416.084 242.158 417.274C243.089 417.167 244.863 414.2 245.343 413.371C246.295 411.604 246.979 409.707 247.372 407.741C248.019 405.321 248.48 402.862 249.038 400.422C249.499 398.383 249.038 396.382 249.401 394.382C250.459 388.137 252.233 381.823 253.517 375.666C254.632 370.519 255.211 365.27 255.242 360.004C255.242 357.389 254.997 354.559 256.222 352.198C257.203 350.246 260.643 349.563 262.328 348.695C263.963 347.746 265.716 347.018 267.542 346.529C268.278 349.046 267.689 352.657 267.67 355.311C267.67 358.755 268.915 361.897 268.434 365.362C267.993 368.523 266.758 373.031 264.396 375.354C263.789 375.968 262.926 376.008 262.358 376.613C261.861 377.297 261.434 378.029 261.084 378.798C260.035 380.545 258.496 381.794 257.506 383.56C255.811 386.595 256.203 388.898 256.105 392.264C256.026 395.036 255.36 397.67 255.272 400.471C255.174 403.467 254.292 406.501 253.802 409.487C253.214 413.273 253.204 416.981 252.822 420.738C252.695 422.211 252.121 423.61 251.175 424.749C248.94 427.676 245.245 431.911 241.207 431.365" stroke="black" stroke-width="0.792086" stroke-miterlimit="10"/>
<path d="M311.011 352.188C311.078 349.453 310.196 346.921 310.177 344.186C310.177 341.683 310.177 339.18 310.177 336.677V326.482C310.177 324.849 310.545 322.732 310.012 321.157C309.401 319.369 307.898 318.654 307.684 316.615C307.491 314.769 307.791 312.827 307.684 310.971C307.568 307.666 305.745 309.251 303.253 309.676C301.176 309.91 299.082 309.946 296.998 309.783C295.195 309.734 293.517 309.203 291.733 309C289.386 308.739 287.001 309.212 284.664 309C281.75 308.557 278.883 307.845 276.101 306.874C274.007 306.246 271.01 306.188 269.187 304.873C267.044 303.327 270.816 301.974 272.319 301.008C274.673 299.307 277.21 297.874 279.883 296.736C285.924 294.542 292.053 294.282 298.356 293.537C303.204 292.948 308.538 293.412 313.474 293.479C315.401 293.376 317.317 293.12 319.205 292.716C321.144 292.445 323.141 292.793 325.12 292.465C327.232 292.055 329.378 291.841 331.529 291.827C332.654 291.827 334.962 291.324 335.942 291.827C336.766 292.281 336.766 293.354 337.386 294.059C338.298 294.866 339.32 295.539 340.422 296.06C339.966 297.741 339.733 299.181 338.695 300.505C336.659 303.095 334.817 303.714 331.801 304.864C330.002 305.603 328.125 306.138 326.206 306.458C323.878 306.806 321.638 307.995 319.321 308.246C318.646 310.592 318.319 313.024 318.351 315.465C318.351 317.649 317.954 320.297 318.429 322.404C318.805 323.483 319.059 324.602 319.185 325.738C319.185 327.081 319.185 328.424 319.185 329.758C319.185 332.358 318.341 334.397 318.371 336.871C318.4 339.345 318.371 341.645 318.371 344.032C318.503 345.132 318.519 346.243 318.419 347.346C318.177 348.313 317.653 348.622 317.537 349.733C317.352 351.425 317.847 354.836 315.442 355.426C312.795 356.083 311.893 353.01 311.001 351.386" stroke="black" stroke-width="0.792086" stroke-miterlimit="10"/>
</svg>
