<svg width="225" height="186" viewBox="0 0 225 186" fill="none" xmlns="http://www.w3.org/2000/svg">
<path d="M7.7862 132.392C6.9025 131.757 6.26445 130.124 5.87205 129.15C5.57144 128.298 5.50752 127.382 5.68702 126.497C5.7904 125.873 5.85856 125.244 5.89119 124.613C5.9303 124.34 6.00316 124.072 6.10813 123.817C6.18426 123.379 6.20463 122.933 6.16874 122.49C6.16874 121.041 5.89757 119.702 5.89757 118.249C5.89757 117.855 5.7891 117.214 5.89757 116.834C5.9518 116.618 6.21659 116.545 6.21659 116.32C6.21659 116.031 5.80825 115.685 5.64235 115.511C4.94688 114.781 3.66759 114.559 2.88917 113.924C2.44573 113.569 2.0629 113.119 1.59713 112.773C1.0165 112.341 0.923985 111.666 1.0484 110.958C1.22387 109.971 1.63541 108.982 1.93849 108.008C2.06929 107.586 2.21603 106.805 2.47125 106.453C2.72647 106.101 3.32305 105.879 3.6995 105.597C5.86886 103.972 9.71311 103.928 12.3132 104.461C13.2507 104.625 14.1776 104.846 15.0887 105.121C15.4779 105.248 15.7841 105.476 16.1733 105.571C16.4732 105.644 16.7444 105.533 16.9358 105.844C17.0539 106.041 16.9709 106.44 17.0283 106.669C17.0985 106.954 17.191 107.164 17.2389 107.459C17.3734 108.086 17.4629 108.722 17.5069 109.362C17.526 110.355 17.6409 111.431 17.3123 112.37C16.7986 113.826 15.9692 114.984 14.5431 115.666C14.1483 115.839 13.7666 116.041 13.401 116.269C13.1299 116.45 13.066 116.244 12.9065 116.586C12.8172 116.77 12.9257 117.427 12.9257 117.624C12.889 118.09 12.889 118.559 12.9257 119.026C12.9767 119.321 13.1713 119.53 13.2224 119.829C13.2734 120.127 13.1905 120.463 13.2702 120.812C13.5988 122.136 13.7595 123.496 13.7488 124.86C13.7488 125.536 13.9944 126.053 14.0231 126.723C14.055 127.459 14.0072 128.204 14.0231 128.943C14.0307 129.479 13.8848 130.006 13.6023 130.462C13.3198 130.918 12.9125 131.285 12.428 131.519C11.2731 132.122 10.4501 132.059 9.16439 132.154C8.71137 132.183 8.32216 132.411 7.88829 132.392C7.80853 132.392 7.34275 132.141 7.17686 132.122L7.57884 131.9" stroke="black" stroke-width="0.792086" stroke-miterlimit="10"/>
<path d="M158.708 26.7682C158.708 25.3723 158.53 24.0144 158.405 22.6216C158.294 21.3526 158.405 19.8171 157.697 18.7162C157.338 18.2177 157.047 17.6735 156.833 17.0982C156.533 16.2258 155.939 15.7562 155.4 15.0361C154.628 14.0018 153.945 12.5393 152.51 12.5646C151.502 12.5837 149.935 12.6884 149.195 11.835C148.768 11.3369 148.688 11.0196 149.141 10.5469C149.594 10.0742 150.047 9.59512 150.503 9.09386C150.822 8.74805 151.259 8.47521 151.518 8.06912C151.776 7.66304 151.798 7.06025 152.232 6.8001C152.487 6.64147 152.653 6.75886 152.921 6.68589C153.189 6.61292 153.362 6.42257 153.579 6.39084C154.159 6.31153 153.965 6.48919 154.13 6.80962C154.222 6.99213 154.303 7.17961 154.373 7.37116C154.501 7.94539 154.274 8.55452 154.52 9.09069C154.765 9.62685 155.413 9.89652 155.888 10.2645C156.545 10.769 156.715 11.5336 157.196 12.1839C157.585 12.7137 157.968 13.2372 158.338 13.7702C158.756 14.4047 159.295 14.814 159.793 15.3565C160.24 15.8893 160.583 16.5004 160.804 17.1585C160.97 17.7391 160.572 18.7257 161.123 19.154C161.762 18.0468 161.395 16.3463 161.395 15.1154V12.295C161.395 11.3432 161.395 10.42 161.395 9.48408C161.395 8.44349 161.666 7.84704 162.077 6.94604C162.291 6.47333 162.227 6.43843 161.972 6.09579C161.482 5.5352 160.864 5.09996 160.17 4.82677C159.359 4.59517 158.37 4.71256 157.617 4.41434C157.235 4.26523 156.523 3.56409 156.523 3.07234C156.523 2.48859 157.429 1.9334 157.889 1.73353C159.089 1.24975 160.377 1.01443 161.672 1.04191C162.929 1.04191 164.263 0.889625 165.5 1.16564C166.138 1.28653 166.756 1.4925 167.338 1.77794C167.715 1.97464 168.394 2.05078 168.707 2.30141C169.195 2.69164 169.278 3.99556 169.437 4.58565C169.922 6.36863 168.113 7.33944 166.818 8.07547C166.017 8.53549 165.571 8.49742 165.449 9.56974C165.277 11.0799 165.692 12.6852 165.395 14.1795C165.076 15.7657 165.191 17.4567 165.185 19.1128C165.211 19.862 165.284 20.609 165.402 21.3495C165.465 21.9237 165.245 22.4345 165.185 23.015C165.07 24.1254 164.795 24.8456 163.848 25.4801C162.495 26.3843 160.855 26.4827 159.26 26.4985" stroke="black" stroke-width="0.792086" stroke-miterlimit="10"/>
<path d="M164.312 70.7046C163.221 70.7332 162.117 70.4096 161.08 70.1621C160.152 69.94 159.293 69.9242 158.655 69.1627C158.017 68.4013 157.775 67.4178 157.105 66.6247C156.435 65.8316 155.165 64.9083 154.894 63.8836C154.623 62.8589 155.165 61.8754 154.623 60.9363C154.304 60.3557 153.72 59.9433 153.257 59.4642C152.795 58.9852 152.527 58.4522 152.055 57.989C151.308 57.2593 150.418 56.003 149.359 55.7301C148.807 55.5905 148.156 55.7619 147.592 55.7301C147.06 55.6585 146.533 55.5526 146.016 55.4129C146.115 54.826 147.403 53.9757 147.876 53.6553C149.12 52.8114 150.533 52.3418 151.857 51.6534C152.24 51.4567 152.495 51.0728 152.929 50.9491C153.363 50.8254 153.695 50.9491 154.081 50.8571C154.821 50.6395 155.544 50.3637 156.24 50.0322C156.753 49.8594 157.296 49.7935 157.835 49.8387C158.474 49.8387 159.667 49.6293 160.257 49.8926C160.145 50.1274 159.938 50.1147 159.782 50.3622C159.695 50.5821 159.633 50.8108 159.596 51.0443C159.404 51.518 159.266 52.0118 159.185 52.5163C159.124 53.6236 158.904 54.6134 158.923 55.7333C158.923 56.2917 158.69 56.6851 158.639 57.2085C158.588 57.732 158.869 58.1603 158.923 58.6806C159.051 59.8925 159.813 60.8253 160.337 61.8976C160.614 62.4591 161.054 62.954 161.294 63.5188C161.492 63.9756 161.574 64.4705 161.804 64.9052C162.232 65.7078 162.557 66.52 163.495 66.9356C164.353 67.3163 165.945 67.3258 166.172 68.4616C166.198 68.8753 166.116 69.2887 165.932 69.6608C165.84 69.9088 165.695 70.1338 165.507 70.3201C165.318 70.5064 165.091 70.6496 164.841 70.7395" stroke="black" stroke-width="0.792086" stroke-miterlimit="10"/>
<path d="M42.3972 127.859C42.2601 126.926 41.37 126.511 40.9776 125.73C40.6056 124.93 40.4453 124.049 40.5118 123.17C40.5465 122.424 40.3601 121.685 39.9758 121.044C39.5388 120.41 39.1368 120.073 38.3552 120.092C37.6059 120.138 36.8589 119.971 36.2018 119.61C35.6913 119.356 34.6832 119.15 34.3674 118.687C34.3323 118.633 34.093 117.894 34.0898 117.878C34.1103 117.544 34.2051 117.219 34.3674 116.926C34.6864 116.419 35.3532 115.974 35.7966 115.524C36.3007 115.013 36.725 114.969 37.3917 114.69C38.1255 114.372 38.9103 113.944 39.7174 113.909C41.0637 113.855 42.7609 113.192 44.0275 113.909C44.7009 114.26 45.3189 114.706 45.8618 115.235C46.0887 115.572 46.27 115.937 46.401 116.32C46.5331 116.715 46.6397 117.118 46.72 117.526C46.7551 117.903 46.4935 118.211 46.452 118.598C46.4106 118.985 46.4903 119.264 46.3372 119.67C46.1999 119.998 46.04 120.316 45.8587 120.622C45.5396 121.181 45.5396 121.149 45.6417 121.79C45.8682 123.059 46.468 124.122 46.4616 125.426C46.4616 126.235 46.4265 127.012 45.9958 127.646C45.6066 128.236 44.5698 128.484 43.903 128.389C42.7514 128.224 42.9268 127.561 42.4196 126.771" stroke="black" stroke-width="0.792086" stroke-miterlimit="10"/>
<path d="M95.1082 59.6069C94.971 58.6742 94.0809 58.2586 93.6885 57.4781C93.3165 56.6781 93.1562 55.7968 93.2227 54.9179C93.2574 54.1724 93.0711 53.4332 92.6868 52.7922C92.2497 52.1577 91.8477 51.8214 91.0661 51.8405C90.3168 51.8865 89.5699 51.7193 88.9127 51.3583C88.4023 51.1044 87.3942 50.8982 87.0783 50.435C87.0432 50.3811 86.804 49.6419 86.8008 49.626C86.8212 49.2922 86.916 48.9671 87.0783 48.6743C87.3974 48.1667 88.0641 47.7225 88.5076 47.272C89.0116 46.7612 89.4359 46.7168 90.1027 46.4376C90.8364 46.1204 91.6212 45.6921 92.4284 45.6572C93.7747 45.6032 95.4719 44.9402 96.7384 45.6572C97.4118 46.0076 98.0298 46.4544 98.5728 46.9833C98.7997 47.3198 98.9809 47.6846 99.1119 48.0683C99.244 48.463 99.3506 48.8657 99.431 49.2739C99.4661 49.6514 99.2045 49.9592 99.163 50.3462C99.1215 50.7333 99.2013 51.0124 99.0481 51.4185C98.9109 51.7464 98.751 52.0644 98.5696 52.3703C98.2506 52.9287 98.2506 52.8969 98.3527 53.5378C98.5792 54.8068 99.1789 55.8696 99.1726 57.1736C99.1726 57.9826 99.1375 58.7598 98.7068 59.3943C98.3176 59.9844 97.2807 60.2319 96.614 60.1367C95.4623 59.9717 95.6378 59.3087 95.1305 58.5187" stroke="black" stroke-width="0.792086" stroke-miterlimit="10"/>
<path d="M45.6319 80.4149C44.8598 79.7423 44.5599 78.1084 44.3558 77.1821C44.2074 76.5015 44.2074 75.7973 44.3558 75.1167C44.4419 74.7995 45.048 73.9778 44.8247 73.5971C44.6014 73.2164 43.1275 72.9784 42.6649 72.7119C42.4527 72.5685 42.2273 72.4452 41.9918 72.3439C41.6472 72.2107 41.0634 72.2297 40.7763 71.9854C40.1861 71.4841 40.5817 70.8718 40.9869 70.4404C41.8993 69.4886 43.4657 69.0222 44.6875 68.6257C46.4773 68.0451 48.6371 68.3497 50.4715 68.6003C51.0904 68.6859 51.8082 68.5146 52.3186 68.9524C52.7014 69.2856 53.113 70.2215 52.8641 70.7164C52.6153 71.2113 51.9549 71.5286 51.5689 71.8997C51.4541 72.0108 51.3456 72.217 51.2499 72.3249C51.1542 72.4327 50.9309 72.3598 50.8383 72.4359C50.632 72.5807 50.4482 72.755 50.2928 72.953C49.9738 73.5717 50.2386 74.8946 50.2386 75.5926C50.2657 76.3137 50.1949 77.035 50.028 77.7373C49.964 78.1368 49.9447 78.5422 49.9706 78.946C49.9706 79.4822 49.8908 79.4568 49.6324 79.8724C49.2345 80.5185 48.7751 81.1251 48.2606 81.6839C47.731 82.255 47.5811 82.4168 46.9845 81.887C46.5602 81.5126 45.4372 80.821 45.6382 80.1452" stroke="black" stroke-width="0.792086" stroke-miterlimit="10"/>
<path d="M216.429 82.4305C215.657 81.7579 215.357 80.1241 215.153 79.1977C215.004 78.5171 215.004 77.8129 215.153 77.1323C215.239 76.8151 215.845 75.9934 215.622 75.6127C215.398 75.232 213.924 74.994 213.462 74.7275C213.25 74.5841 213.024 74.4609 212.789 74.3595C212.444 74.2263 211.86 74.2453 211.573 74.001C210.983 73.4998 211.379 72.8875 211.784 72.456C212.696 71.5042 214.263 71.0379 215.484 70.6413C217.274 70.0607 219.434 70.3653 221.268 70.6159C221.887 70.7016 222.605 70.5303 223.115 70.9681C223.498 71.3012 223.91 72.2371 223.661 72.732C223.412 73.2269 222.752 73.5442 222.366 73.9154C222.251 74.0264 222.142 74.2326 222.047 74.3405C221.951 74.4484 221.728 74.3754 221.635 74.4515C221.429 74.5964 221.245 74.7706 221.09 74.9687C220.771 75.5873 221.035 76.9103 221.035 77.6082C221.063 78.3293 220.992 79.0507 220.825 79.7529C220.761 80.1524 220.742 80.5578 220.767 80.9616C220.767 81.4978 220.688 81.4724 220.429 81.888C220.031 82.5341 219.572 83.1407 219.057 83.6995C218.528 84.2706 218.378 84.4324 217.781 83.9026C217.357 83.5282 216.234 82.8366 216.435 82.1608" stroke="black" stroke-width="0.792086" stroke-miterlimit="10"/>
<path d="M196.465 184.183C196.465 183.662 196.465 183.141 196.465 182.62C196.489 182.093 196.569 181.57 196.706 181.06C196.803 180.555 196.599 179.978 196.706 179.485C196.862 179.07 197.078 178.68 197.348 178.326C197.627 177.882 197.838 177.4 197.974 176.896C198.106 176.375 197.927 175.851 198.018 175.333C198.102 174.862 198.24 174.513 198.29 174.026C198.34 173.539 198.603 173.336 198.76 172.932C199.201 171.903 198.819 171.554 198.099 170.842C197.855 170.602 197.611 170.368 197.373 170.124C197.109 169.905 196.822 169.714 196.518 169.554C196.272 169.349 196.004 169.17 195.72 169.021C195.432 168.873 195.161 168.695 194.912 168.49C194.664 168.314 194.466 168.078 194.336 167.806C194.204 167.387 194.355 166.684 194.336 166.231C194.336 165.682 194.608 165.257 194.608 164.73C195.783 164.246 197.032 163.959 198.303 163.879C199.136 163.842 199.868 163.645 200.67 163.629C201.421 163.614 202.173 163.629 202.921 163.629C203.326 163.608 203.731 163.608 204.136 163.629C204.518 163.67 204.803 163.845 205.172 163.91C205.918 164.039 206.707 164.015 207.427 164.277C207.74 164.391 208.094 164.585 208.407 164.733C208.908 164.967 209.609 165.158 210.063 165.457C210.517 165.756 210.645 166.139 210.89 166.496C211.315 167.113 211.957 167.489 212.324 168.167C212.446 168.377 212.534 168.605 212.584 168.842C212.64 169.07 212.793 169.32 212.831 169.517C212.934 170.087 212.333 170.91 211.923 171.295C210.551 172.584 208.726 173.145 206.882 173.505C206.353 173.613 205.022 173.561 204.69 174.008C204.358 174.455 204.437 175.749 204.399 176.249C204.374 176.947 204.449 177.645 204.621 178.323C204.881 179.716 204.515 181.227 203.917 182.444C203.694 182.9 203.575 183.44 203.131 183.754C202.587 184.111 201.978 184.36 201.337 184.488C200.44 184.779 199.506 184.946 198.563 184.984C198.124 184.984 197.677 185.018 197.241 184.984C196.806 184.95 196.396 184.735 195.917 184.676C196.136 183.998 196.897 183.683 196.975 182.879" stroke="black" stroke-width="0.792086" stroke-miterlimit="10"/>
<path d="M194.463 48.7455C194.463 48.2093 194.463 47.6732 194.463 47.137C194.487 46.5947 194.57 46.0565 194.709 45.5317C194.808 45.0114 194.6 44.4181 194.709 43.9105C194.868 43.4835 195.088 43.0817 195.363 42.7176C195.647 42.2607 195.862 41.7647 196.001 41.2456C196.135 40.7094 195.953 40.1701 196.046 39.6371C196.132 39.1517 196.272 38.7932 196.323 38.2919C196.374 37.7906 196.642 37.5812 196.802 37.1656C197.251 36.106 196.862 35.7475 196.128 35.0146C195.88 34.7672 195.631 34.5261 195.388 34.2754C195.119 34.0502 194.827 33.8535 194.517 33.6885C194.267 33.4774 193.994 33.2935 193.704 33.1397C193.41 32.988 193.134 32.805 192.881 32.594C192.629 32.4121 192.427 32.1698 192.294 31.8897C192.16 31.4582 192.313 30.7349 192.294 30.2685C192.294 29.7038 192.571 29.266 192.571 28.7235C193.769 28.2257 195.041 27.9298 196.336 27.8478C197.184 27.8098 197.931 27.6067 198.748 27.5909C199.513 27.575 200.279 27.5909 201.041 27.5909C201.454 27.5687 201.867 27.5687 202.279 27.5909C202.668 27.6321 202.959 27.8129 203.335 27.8796C204.095 28.0128 204.898 27.9874 205.632 28.2571C205.951 28.3745 206.312 28.5744 206.631 28.7266C207.141 28.9678 207.856 29.1644 208.318 29.4722C208.781 29.7799 208.912 30.1733 209.161 30.5413C209.594 31.1759 210.248 31.5629 210.622 32.2609C210.746 32.477 210.836 32.7116 210.887 32.9557C210.944 33.1904 211.1 33.4474 211.139 33.6504C211.244 34.2374 210.631 35.0844 210.213 35.481C208.816 36.8071 206.956 37.3845 205.077 37.7557C204.538 37.8668 203.182 37.8128 202.844 38.2729C202.506 38.7329 202.586 40.0654 202.547 40.5793C202.522 41.298 202.598 42.0167 202.774 42.7144C203.039 44.1484 202.665 45.703 202.056 46.9562C201.829 47.4257 201.708 47.9809 201.255 48.3045C200.701 48.6719 200.08 48.9284 199.427 49.0596C198.513 49.3587 197.562 49.5306 196.601 49.5703C196.154 49.5703 195.698 49.6052 195.254 49.5703C194.811 49.5354 194.393 49.3134 193.905 49.2531C194.128 48.5551 194.903 48.2315 194.983 47.4035" stroke="black" stroke-width="0.792086" stroke-miterlimit="10"/>
<path d="M96.91 174.317C96.8843 173.213 96.7839 172.112 96.6095 171.022C96.6142 170.55 96.5213 170.082 96.3366 169.648C96.0914 169.183 95.9846 169.254 95.9095 168.691C95.7473 167.858 95.6363 167.017 95.5773 166.171C95.5773 165.348 95.2332 164.686 95.2411 163.844C95.2411 162.45 95.51 160.694 95.166 159.351C94.984 158.646 94.8931 157.725 94.2564 157.264C93.9281 157.028 93.5722 157.032 93.2954 156.701C93.1368 156.383 93.0045 156.052 92.8999 155.713C92.3858 154.551 92.3344 152.465 92.5954 151.205C92.7496 150.452 93.1451 149.98 93.5682 149.378C93.853 148.984 93.9004 148.724 94.3908 148.681C95.079 148.618 95.1146 149.141 95.4626 149.578C95.8106 150.015 96.297 150.224 96.7676 150.551C97.2383 150.878 97.1236 150.815 97.2422 151.362C97.4514 152.24 97.5628 153.138 97.5744 154.04C97.5744 155.587 97.5744 157.138 97.5744 158.686C97.5744 160.351 97.5744 162.013 97.5744 163.674C97.6175 164.456 97.7233 165.233 97.8908 165.998C97.962 166.517 98.2309 166.931 98.2546 167.474C98.2783 168.017 98.1518 168.49 98.31 168.97C98.6857 168.927 99.4015 167.73 99.5953 167.395C99.9793 166.682 100.255 165.917 100.414 165.123C100.675 164.147 100.861 163.155 101.086 162.17C101.272 161.347 101.086 160.54 101.233 159.733C101.66 157.213 102.375 154.666 102.894 152.181C103.343 150.104 103.577 147.986 103.59 145.861C103.59 144.806 103.491 143.664 103.985 142.711C104.381 141.924 105.769 141.648 106.449 141.298C107.108 140.915 107.816 140.621 108.553 140.424C108.849 141.44 108.612 142.897 108.604 143.968C108.604 145.357 109.106 146.625 108.913 148.023C108.735 149.299 108.236 151.118 107.283 152.055C107.038 152.303 106.69 152.319 106.461 152.563C106.26 152.839 106.088 153.135 105.947 153.445C105.523 154.15 104.903 154.654 104.503 155.366C103.819 156.591 103.977 157.52 103.938 158.879C103.906 159.997 103.637 161.06 103.601 162.19C103.562 163.399 103.206 164.623 103.008 165.828C102.771 167.356 102.767 168.852 102.613 170.368C102.562 170.962 102.33 171.527 101.948 171.986C101.047 173.168 99.5557 174.876 97.9264 174.656" stroke="black" stroke-width="0.792086" stroke-miterlimit="10"/>
<path d="M126.093 142.708C126.12 141.605 125.764 140.583 125.756 139.479C125.756 138.469 125.756 137.459 125.756 136.449V132.335C125.756 131.676 125.905 130.822 125.69 130.187C125.443 129.465 124.837 129.177 124.751 128.354C124.672 127.609 124.794 126.825 124.751 126.077C124.704 124.743 123.968 125.383 122.962 125.554C122.124 125.649 121.279 125.663 120.439 125.597C119.711 125.578 119.034 125.363 118.314 125.281C117.367 125.176 116.405 125.367 115.462 125.281C114.286 125.102 113.129 124.815 112.006 124.423C111.161 124.17 109.952 124.147 109.217 123.616C108.352 122.992 109.874 122.446 110.48 122.056C111.43 121.37 112.454 120.792 113.532 120.333C115.97 119.448 118.443 119.342 120.986 119.042C122.943 118.804 125.095 118.991 127.087 119.019C127.864 118.977 128.638 118.874 129.399 118.711C130.182 118.601 130.988 118.742 131.786 118.609C132.638 118.444 133.504 118.358 134.372 118.352C134.826 118.352 135.757 118.149 136.153 118.352C136.485 118.535 136.485 118.968 136.736 119.253C137.103 119.578 137.516 119.85 137.96 120.06C137.776 120.738 137.682 121.319 137.264 121.854C136.442 122.899 135.699 123.148 134.482 123.612C133.756 123.911 132.998 124.126 132.224 124.256C131.285 124.396 130.381 124.876 129.446 124.977C129.174 125.924 129.042 126.905 129.055 127.89C129.055 128.771 128.894 129.84 129.086 130.69C129.238 131.126 129.34 131.577 129.391 132.035C129.391 132.577 129.391 133.119 129.391 133.657C129.391 134.706 129.051 135.529 129.063 136.527C129.074 137.526 129.063 138.454 129.063 139.417C129.116 139.861 129.122 140.309 129.082 140.754C128.984 141.144 128.773 141.269 128.726 141.718C128.652 142.4 128.851 143.777 127.881 144.014C126.813 144.28 126.449 143.04 126.089 142.384" stroke="black" stroke-width="0.792086" stroke-miterlimit="10"/>
</svg>
