<svg width="789" height="157" viewBox="0 0 789 157" fill="none" xmlns="http://www.w3.org/2000/svg">
<path d="M353.784 123.854C354.882 123.623 355.937 123.127 357.079 122.962C359.045 122.687 361.044 122.642 363.016 122.334C364.732 122.01 366.479 121.888 368.223 121.971C370.831 122.174 373.446 122.791 376.071 122.951C377.537 123.039 378.608 122.637 379.97 122.444C382.667 122.059 385.128 122.681 387.605 123.546C388.654 123.914 389.801 124.427 390.9 124.691C391.702 124.889 392.548 124.691 393.333 124.862C394.118 125.032 396.875 125.77 397.232 126.607C396.683 127.852 395.706 129.537 394.602 130.373C394.102 130.753 393.564 131.332 393.097 131.656C392.63 131.981 392.284 131.772 391.998 132.257C393.047 131.508 394.327 131.745 395.546 131.745C396.766 131.745 398.556 131.403 399.698 131.805C399.698 132.4 399.149 132.906 398.913 133.457C398.488 134.513 397.992 135.54 397.43 136.53C396.73 137.535 395.919 138.458 395.014 139.283C392.053 142.036 388.269 143.534 385.128 145.979C382.107 148.313 378.685 149.613 375.159 151.056C371.947 152.283 368.66 153.301 365.317 154.106C363.506 154.485 361.671 154.745 359.825 154.883C357.491 155.174 355.184 155.604 352.845 155.841C349.95 156.132 346.951 155.934 344.057 155.934C340.169 155.934 336.253 156.061 332.364 155.934C325.889 155.753 320.023 154.381 313.911 152.443C309.89 151.166 306.024 149.139 302.339 147.124C301.758 146.721 301.096 146.45 300.4 146.331C299.422 146.276 298.423 146.915 297.456 147.036C296.358 147.179 295.028 146.783 293.974 147.036C293.6 147.129 293.485 147.443 293.117 147.553C292.436 147.746 291.47 147.515 290.739 147.526C288.493 147.564 285.835 148.737 284.061 150.097C281.649 151.883 278.92 153.191 276.02 153.952C275.861 153.115 276.696 152.113 276.998 151.364C277.788 149.387 277.915 147.19 278.255 145.098C278.805 141.618 278.805 138.088 279.052 134.564C279.183 132.659 279.156 130.764 279.156 128.854C279.078 127.796 279.064 126.736 279.112 125.677C279.277 124.316 279.299 124.405 280.76 124.118C281.342 124.003 282.407 123.617 282.957 123.903C284.148 124.482 285.576 126.145 286.691 126.921C289.404 128.784 291.982 130.836 294.408 133.061C295.124 133.826 296.01 134.411 296.995 134.768C298.9 135.401 300.29 134.156 301.866 133.143C303.964 131.811 305.947 130.148 308.149 129.002C310.445 127.813 312.971 127.455 315.448 126.844C321.287 125.396 326.982 123.468 332.908 122.439C336.709 121.803 340.54 121.367 344.387 121.134C346.767 120.889 349.171 120.98 351.526 121.404C352.625 121.64 353.784 121.514 354.822 121.739C355.525 121.894 357.046 121.789 357.568 122.439" stroke="black" stroke-miterlimit="10"/>
<path d="M468.247 56.9804C466.758 57.1072 465.347 56.5777 463.853 56.4894C461.541 56.346 459.426 56.5998 457.13 56.0592C456.018 55.8758 454.932 55.5592 453.896 55.116C453.39 54.8512 453.006 54.3217 452.479 54.1617C451.506 53.8749 450.282 54.6251 449.238 54.6471C448.297 54.7215 447.351 54.7215 446.41 54.6471C445.954 54.5809 444.724 53.8473 444.334 54.1562C443.757 54.6251 444.103 56.7377 444.103 57.5264C444.049 58.902 444.201 60.2778 444.553 61.6082C444.745 62.2263 444.905 62.8542 445.031 63.4891C445.134 63.8355 445.255 64.1761 445.394 64.5096C445.745 65.7727 445.317 66.8593 446.02 68.1004C447.008 68.2218 447.975 67.2785 448.996 67.1793C449.705 67.1131 450.359 67.2785 451.062 67.102C451.765 66.9255 452.451 66.6883 453.149 66.5063C453.846 66.3243 454.527 66.3408 455.236 66.1643C456.664 65.8168 457.509 65.1935 458.943 65.5741C459.699 65.8387 460.514 65.8827 461.293 65.701C462.101 65.4804 462.634 65.1494 463.49 65.4087C463.419 66.909 465.863 67.8853 466.934 68.6024C468.219 69.4628 469.477 70.4667 470.96 70.9301C474.283 71.9184 477.737 72.3909 481.203 72.3311C486.255 72.298 490.726 75.2214 495.773 75.5524C499.024 75.8016 502.29 75.3735 505.368 74.2948C508.543 73.1916 511.563 71.7188 514.705 70.4336C518.632 68.8506 522.625 68.0232 526.716 67.0689C528.6 66.6332 530.396 65.9658 532.263 65.4417C534.235 64.8902 536.372 64.4875 538.305 63.8311C539.993 63.2246 541.557 62.3123 542.918 61.1393C543.673 60.4949 544.34 59.753 544.901 58.933C545.527 57.8298 544.687 57.8298 543.748 57.5209C541.525 56.7945 539.245 56.2593 536.932 55.9213C536.932 55.3697 539.31 54.1948 539.799 53.7977C540.255 53.4517 540.559 52.9407 540.646 52.3732C540.733 51.8057 540.597 51.2264 540.265 50.7584C539.442 49.5725 538.102 49.1864 536.86 48.6127C528.968 44.9557 519.873 45.0826 511.382 45.1929C507.241 45.2425 503.193 44.7351 499.069 45.1929C496.921 45.4246 494.757 45.0771 492.626 45.2867C491.056 45.4411 489.424 45.91 487.826 46.1196C485.675 46.3547 483.546 46.7661 481.461 47.3496C477.342 48.6183 473.453 50.6922 469.57 52.507C468.168 53.2109 466.855 54.0813 465.66 55.0994C464.962 55.651 463.6 56.4508 463.595 57.4216" stroke="black" stroke-miterlimit="10"/>
<path d="M643.686 102.163C640.742 101.551 637.836 100.288 634.898 99.8136C633.767 99.6316 632.449 99.8136 631.295 99.8136C630.268 99.8136 628.961 99.6095 628 99.9074C628.286 101.011 629.648 101.783 629.834 103.073C630.021 104.364 630.345 105.589 630.636 106.935C630.941 108.121 631.125 109.335 631.185 110.559C631.223 111.075 631.345 111.582 631.548 112.059C631.68 112.577 631.548 113.118 631.976 113.499C632.663 114.05 635.535 112.864 636.332 112.528C637.392 112.075 638.397 111.938 639.429 111.358C641.258 110.343 642.873 108.777 645.092 108.7C646.8 108.639 648.222 109.362 649.842 109.648C651.111 109.875 652.621 109.615 653.918 109.648C655.642 109.648 657.18 109.169 658.904 109.185C660.629 109.202 662.452 109.229 664.221 109.185C666.33 109.141 668.219 108.314 670.262 107.894C671.97 107.547 673.558 106.918 675.233 106.51C677.653 105.923 680.024 105.144 682.323 104.182C683.098 103.851 683.773 103.427 684.52 103.107C685.069 102.88 685.745 102.941 685.877 102.279C684.244 101.979 682.592 101.795 680.934 101.728C679.626 101.728 678.577 101.176 677.265 101.275C677.754 100.658 679.462 100.117 680.154 99.8963C680.846 99.6757 683.449 99.5488 683.559 98.5505C682.746 98.3078 681.873 98.4291 681.043 98.2195C680.285 98.0393 679.505 97.9614 678.726 97.9878C676.749 97.9878 674.914 97.508 672.926 97.5245C672.533 97.563 672.138 97.563 671.745 97.5245C671.427 97.4583 671.196 97.2101 670.965 97.1439C670.157 96.9982 669.333 96.9629 668.516 97.0391H663.644C660.25 97.0391 657.141 97.1163 653.907 97.9161C651.996 98.3996 650.13 99.0436 648.327 99.8412C647.376 100.255 646.443 100.652 645.509 101.137C644.96 101.43 643.702 102.682 643.213 102.638" stroke="black" stroke-miterlimit="10"/>
<path d="M24.7906 60.3392C23.6043 58.7782 22.5003 57.0296 21.0779 55.6672C19.4687 54.1503 17.1839 53.7752 15.4099 52.5452C14.7179 52.0598 13.8447 51.1166 12.9604 51.0945C12.532 51.0945 12.241 51.4365 11.8071 51.5137C11.3732 51.5909 10.9832 51.4089 10.5164 51.5799C9.76948 51.8612 9.37953 52.81 8.94016 53.3505C8.50078 53.8911 7.61654 54.1503 7.11676 54.746C6.75976 55.1708 6.56754 55.6893 6.24899 56.1416C5.12859 57.7467 3.39306 58.9712 2.61866 60.8963C2.12437 62.1098 2.26167 63.6542 2.06944 64.8953C1.80333 66.1556 1.64349 67.4361 1.59162 68.7233C1.59162 70.3781 1.1193 71.4813 1.12479 73.1361C1.12479 74.3716 0.504174 77.7418 2.031 78.0673C3.37658 78.3596 5.87552 77.295 7.11126 76.9641C8.40367 76.6749 9.66264 76.2515 10.8679 75.7009C12.1311 75.0611 13.3723 74.4764 14.7124 73.9414C16.1624 73.3512 17.3981 72.6396 18.7931 71.9391C20.7203 70.9558 22.7453 70.1793 24.8345 69.6224C28.366 68.7123 31.87 72.59 35.1324 73.4836C37.8345 74.2337 40.3664 74.2834 43.1674 74.2834C44.9062 74.2335 46.6464 74.3109 48.374 74.515C50.1589 74.7743 52.2185 74.3937 53.9321 74.8515C57.502 75.8113 61.4014 75.6789 65.1801 75.6789C67.3055 75.6789 69.431 75.6789 71.562 75.6789C74.1543 75.6789 76.6258 75.188 79.2236 75.2155C82.1167 75.2747 85.0039 74.9294 87.8023 74.1896C88.4836 73.9562 89.1494 73.6799 89.796 73.3622C91.537 72.6562 93.4703 72.5459 95.2058 71.8619C99.7094 70.0913 104.147 68.2159 108.667 66.4784C109.962 65.8995 111.202 65.2015 112.369 64.3934C113.16 63.9245 114.483 63.042 113.319 62.2642C112.951 62.016 112.363 62.1815 111.962 62.1815C110.971 62.1565 109.985 62.0309 109.019 61.8064C108.244 61.6575 104.273 62.1704 104.175 61.3375C106.432 60.968 108.354 60.1185 110.655 59.8152C111.655 59.6828 112.21 59.9034 113.061 59.2636C114.577 58.1604 113.67 57.9784 112.325 57.6088C107.135 56.2905 101.983 55.1928 96.7436 54.0841C94.371 53.5822 92.0917 53.4884 89.7191 52.7879C87.3465 52.0874 84.5565 52.115 82.0301 51.8392C80.9975 51.7233 80.1133 51.3262 79.0533 51.4365C77.9933 51.5468 76.9663 51.8612 75.8239 51.8888C73.4952 51.955 71.1116 51.9715 68.7829 51.8888C67.3659 51.8447 66.0368 51.4365 64.5979 51.3703C62.8019 51.2931 61.0115 51.4531 59.2101 51.2931C57.3445 51.0434 55.4613 50.953 53.5806 51.0228C51.4496 51.1993 49.401 51.3538 47.2701 51.3813C43.7832 51.5239 40.3861 52.5341 37.3841 54.3213C35.7206 55.2866 34.0084 56.1648 32.2545 56.9524C31.2878 57.4157 30.5629 58.1328 29.5523 58.5355C28.8054 58.8388 27.9046 58.8499 27.1852 59.2029C26.3613 59.6055 25.6199 59.8317 24.8071 60.2509" stroke="black" stroke-miterlimit="10"/>
<path d="M698.791 20.3392C697.604 18.7782 696.5 17.0296 695.078 15.6672C693.469 14.1503 691.184 13.7752 689.41 12.5452C688.718 12.0598 687.845 11.1166 686.96 11.0945C686.532 11.0945 686.241 11.4365 685.807 11.5137C685.373 11.5909 684.983 11.4089 684.516 11.5799C683.769 11.8612 683.38 12.81 682.94 13.3505C682.501 13.8911 681.617 14.1503 681.117 14.746C680.76 15.1708 680.568 15.6893 680.249 16.1416C679.129 17.7467 677.393 18.9712 676.619 20.8963C676.124 22.1098 676.262 23.6542 676.069 24.8953C675.803 26.1556 675.643 27.4361 675.592 28.7233C675.592 30.3781 675.119 31.4813 675.125 33.1361C675.125 34.3716 674.504 37.7418 676.031 38.0673C677.377 38.3596 679.876 37.295 681.111 36.9641C682.404 36.6749 683.663 36.2515 684.868 35.7009C686.131 35.0611 687.372 34.4764 688.712 33.9414C690.162 33.3512 691.398 32.6396 692.793 31.9391C694.72 30.9558 696.745 30.1793 698.835 29.6224C702.366 28.7123 705.87 32.59 709.132 33.4836C711.835 34.2337 714.366 34.2834 717.167 34.2834C718.906 34.2335 720.646 34.3109 722.374 34.515C724.159 34.7743 726.219 34.3937 727.932 34.8515C731.502 35.8113 735.401 35.6789 739.18 35.6789C741.306 35.6789 743.431 35.6789 745.562 35.6789C748.154 35.6789 750.626 35.188 753.224 35.2155C756.117 35.2747 759.004 34.9294 761.802 34.1896C762.484 33.9562 763.149 33.6799 763.796 33.3622C765.537 32.6562 767.47 32.5459 769.206 31.8619C773.709 30.0913 778.147 28.2159 782.667 26.4784C783.962 25.8995 785.202 25.2015 786.369 24.3934C787.16 23.9245 788.483 23.042 787.319 22.2642C786.951 22.016 786.363 22.1815 785.962 22.1815C784.971 22.1565 783.985 22.0309 783.019 21.8064C782.244 21.6575 778.273 22.1704 778.175 21.3375C780.432 20.968 782.354 20.1185 784.655 19.8152C785.655 19.6828 786.21 19.9034 787.061 19.2636C788.577 18.1604 787.67 17.9784 786.325 17.6088C781.135 16.2905 775.983 15.1928 770.744 14.0841C768.371 13.5822 766.092 13.4884 763.719 12.7879C761.346 12.0874 758.556 12.115 756.03 11.8392C754.998 11.7233 754.113 11.3262 753.053 11.4365C751.993 11.5468 750.966 11.8612 749.824 11.8888C747.495 11.955 745.112 11.9715 742.783 11.8888C741.366 11.8447 740.037 11.4365 738.598 11.3703C736.802 11.2931 735.011 11.4531 733.21 11.2931C731.345 11.0434 729.461 10.953 727.581 11.0228C725.45 11.1993 723.401 11.3538 721.27 11.3813C717.783 11.5239 714.386 12.5341 711.384 14.3213C709.721 15.2866 708.008 16.1648 706.254 16.9524C705.288 17.4157 704.563 18.1328 703.552 18.5355C702.805 18.8388 701.905 18.8499 701.185 19.2029C700.361 19.6055 699.62 19.8317 698.807 20.2509" stroke="black" stroke-miterlimit="10"/>
<path d="M214.996 6.2766L214.914 5.90152C213.146 5.55401 211.998 4.03714 210.355 3.57381C209.386 3.29007 208.391 3.10528 207.384 3.02222C206.473 2.96706 205.462 3.20976 204.578 3.02222C203.847 2.84571 203.644 2.58095 202.699 2.59749C202.045 2.58557 201.399 2.44308 200.799 2.17829C199.843 1.89697 197.581 1.07511 196.543 1.73701C196.026 2.06797 195.192 3.39178 194.895 3.99853C194.606 4.63075 194.374 5.28799 194.203 5.96219C193.901 7.37978 194.104 9.04558 194.104 10.5183C194.104 12.0738 193.846 13.8996 194.143 15.4109C194.374 16.1618 194.516 16.9376 194.565 17.7221C194.565 18.4998 194.291 20.0774 194.708 20.7172C195.944 20.8331 197.427 20.2042 198.635 19.9505C199.792 19.7594 200.925 19.4489 202.018 19.0238C203.205 18.5053 204.292 17.6669 205.429 17.0436C206.456 16.492 207.428 15.6867 208.461 15.1793C209.29 14.7656 211.234 13.5245 212.118 13.8334C212.272 14.7159 211.954 14.7931 212.799 15.6205C214.129 16.9333 217.193 17.4904 218.912 18.0144C220.421 18.5495 221.98 18.932 223.564 19.1562C224.459 19.2334 225.311 18.9025 226.31 18.908C227.661 18.908 228.793 19.2886 230.094 19.3879C232.983 19.6085 235.746 18.8859 238.602 18.908C241.458 18.9301 244.336 19.1893 247.082 18.3233C250.459 17.2588 253.766 15.9846 257.066 14.6994C259.758 13.6514 262.383 12.2338 265.091 11.3347C265.821 11.0975 270.033 9.00145 269.182 7.8045C268.754 7.19775 263.69 7.6997 262.894 7.74383C263.91 7.29704 265.299 6.96057 266.002 6.08906C267.447 4.30191 264.64 4.40119 263.388 4.11437C259.285 3.12702 255.089 2.65265 250.943 1.83078C248.271 1.33951 245.558 1.11228 242.842 1.15233C236.916 1.15233 230.759 0.688992 224.877 1.37848C223.344 1.5605 221.889 1.56602 220.483 2.18932C219.588 2.58095 218.66 2.9119 217.786 3.35317C216.688 3.90476 213.887 4.9583 213.607 6.2766" stroke="black" stroke-miterlimit="10"/>
</svg>
