<svg width="335" height="74" viewBox="0 0 335 74" fill="none" xmlns="http://www.w3.org/2000/svg">
<g clip-path="url(#clip0_600_643)">
<path d="M16.2383 7.06395C18.3313 7.11408 20.3049 6.49822 22.4197 6.54476C24.8784 6.59847 27.2721 6.022 29.7562 6.02916C31.4907 6.02916 33.2289 6.00767 34.9635 6.02916C36.5749 6.04706 37.9111 5.48849 39.5044 5.50997C41.6083 5.53504 43.7086 5.50997 45.8125 5.50997C48.5357 5.50997 50.9184 4.82966 53.656 5.23785C56.6689 5.69258 59.7686 5.50281 62.8213 5.50281" stroke="black" stroke-width="0.361038" stroke-miterlimit="10"/>
<path d="M43.4492 15.8609C44.3002 15.3202 44.9918 15.3882 45.9841 15.3667C48.3052 15.3238 50.5576 14.246 52.8643 13.8951C57.083 13.2435 61.2184 13.2721 65.4697 13.2721C68.3666 13.2721 71.3107 13.401 74.2149 13.2721C76.6592 13.1718 79.0057 12.7458 81.4898 12.7422C84.8684 12.7422 88.1637 12.1729 91.5241 12.2122C94.0373 12.2409 96.5467 12.2122 99.0598 12.2122C101.12 12.2122 103.177 12.2122 105.238 12.2122C106.491 12.2122 107.305 11.8542 108.497 11.6573C109.272 11.5319 110.195 11.6931 110.988 11.6859" stroke="black" stroke-width="0.361038" stroke-miterlimit="10"/>
<path d="M157.035 1.88627C158.082 2.00801 159.085 1.63205 160.11 1.48524C162.025 1.20954 163.995 1.3635 165.925 1.37067C169.655 1.37067 173.385 1.33844 177.118 1.37067C179.143 1.39573 181.196 0.829997 183.18 0.439712C185.889 -0.0866339 189.075 0.325134 191.82 0.325134H225.077" stroke="black" stroke-width="0.361038" stroke-miterlimit="10"/>
<path d="M183.207 27.2475C184.268 27.3585 185.267 27.0506 186.307 26.8895C188.914 26.4705 191.568 26.0624 194.201 25.8153C198.504 25.3904 202.826 25.1837 207.15 25.1959C210.341 25.1959 213.531 25.1959 216.721 25.1959C220.994 25.2352 225.332 24.5728 229.58 24.1933C233.335 23.8567 237.257 24.1324 241.03 24.1539C244.054 24.1539 246.962 23.6168 249.971 23.6311C253.885 23.6526 257.804 23.6311 261.718 23.6311" stroke="black" stroke-width="0.361038" stroke-miterlimit="10"/>
<path d="M102.082 33.4569C104.03 33.507 105.834 32.9091 107.8 32.927C110.28 32.952 112.804 33.0666 115.281 32.9663C117.758 32.8661 120.123 32.4149 122.621 32.4221H127.242C132.163 32.4221 137.237 32.8016 142.125 32.3791C144.722 32.1535 147.224 31.595 149.849 32.0211C151.36 32.2758 152.89 32.4099 154.423 32.4221" stroke="black" stroke-width="0.361038" stroke-miterlimit="10"/>
<path d="M7.34375 33.9767C12.4134 33.9767 17.4831 33.3071 22.5528 32.9848C26.9923 32.7056 31.5188 32.9455 35.9765 32.9455H46.2027C47.6512 32.9455 49.0744 32.9025 50.5083 32.924C51.7975 32.9455 53.2098 33.6401 54.4518 33.4611" stroke="black" stroke-width="0.361038" stroke-miterlimit="10"/>
<path d="M36.6523 42.7727C39.7485 42.8551 42.8953 42.0566 45.9878 41.8418C51.2675 41.5016 56.5979 41.7379 61.8848 41.7379C64.2241 41.7379 67.045 42.2034 69.1055 41.2188" stroke="black" stroke-width="0.361038" stroke-miterlimit="10"/>
<path d="M68.582 72.79C73.0614 72.901 77.5445 72.2994 82.0311 72.235C86.9994 72.1634 91.9713 72.2958 96.936 72.5393C101.205 72.7434 105.554 73.1122 109.824 72.6861C111.37 72.5357 113.112 72.5465 114.633 72.2994C116.425 72.0058 117.971 71.3864 119.858 71.2252C122.878 70.9925 125.8 70.7168 128.839 70.6953C131.04 70.6953 133.137 71.193 135.331 71.2431C140.466 71.3577 145.619 71.2252 150.758 71.2252" stroke="black" stroke-width="0.361038" stroke-miterlimit="10"/>
<path d="M157.566 57.7826C169.578 57.7826 181.604 57.9723 193.615 57.7826C197.121 57.7288 200.557 56.7084 204.117 56.7299C205.873 56.7299 207.684 56.5974 209.433 56.7084C210.697 56.7872 211.783 57.3923 213.054 57.2526" stroke="black" stroke-width="0.361038" stroke-miterlimit="10"/>
<path d="M262.25 44.3283C269.431 44.3283 276.543 43.0142 283.716 42.7457C285.208 42.692 286.516 42.7958 287.986 42.5129C289.105 42.3017 290.238 42.4055 291.335 42.2086C292.143 42.0618 292.813 41.7538 293.649 41.7252C298.918 41.5426 304.227 40.6761 309.543 40.7047C313.349 40.7262 317.075 40.2464 320.87 40.1855" stroke="black" stroke-width="0.361038" stroke-miterlimit="10"/>
<path d="M256.484 8.09888C257.348 8.10327 258.21 8.01564 259.055 7.83749C260.475 7.58327 261.905 7.74082 263.314 7.47943C264.845 7.17948 266.403 7.04026 267.964 7.06409C271.907 7.06409 275.854 7.06409 279.798 7.06409C283.661 7.06409 287.402 6.55206 291.251 6.5449C294.217 6.5449 296.958 6.0293 299.942 6.0293" stroke="black" stroke-width="0.361038" stroke-miterlimit="10"/>
<path d="M294.172 18.9821C296.902 18.9821 299.538 18.6957 302.265 18.5095C303.667 18.4128 305.075 18.5704 306.473 18.4844C307.266 18.4379 307.871 18.1049 308.62 17.9903C310.456 17.711 312.365 18.1586 314.204 17.8328C315.846 17.5475 317.51 17.4133 319.176 17.4317C322.356 17.4317 325.535 17.4317 328.714 17.4317C329.656 17.4317 330.981 17.6716 331.883 17.4568C332.375 17.3386 332.633 17.0164 333.143 16.8947C333.654 16.7729 334.44 16.9197 334.997 16.8947" stroke="black" stroke-width="0.361038" stroke-miterlimit="10"/>
<path d="M0.015625 73.8241C4.72317 73.3121 9.3764 72.4564 14.1165 72.1198C17.9767 71.8441 21.7935 71.7617 25.6573 71.7617C28.1028 71.7617 30.5471 71.7617 32.9902 71.7617" stroke="black" stroke-width="0.361038" stroke-miterlimit="10"/>
<path d="M68.582 52.6039C69.1433 52.5216 69.5235 52.1778 70.0703 52.0597C71.2472 51.8019 73.199 52.0776 74.3361 51.9737C79.0618 51.5405 83.7222 51.5727 88.4587 51.5691H100.72C105.372 51.5691 110.027 51.5691 114.683 51.5691C115.72 51.5904 116.755 51.4551 117.751 51.1681C119.058 50.81 120.611 51.0535 121.962 51.0535" stroke="black" stroke-width="0.361038" stroke-miterlimit="10"/>
<path d="M178.496 42.7743C179.879 41.8469 182.193 42.1119 183.83 41.8827C187.332 41.3886 190.899 40.9912 194.426 40.7477C196.982 40.5722 199.6 40.7047 202.168 40.7047C207.274 40.7047 212.126 39.6699 217.228 39.6699" stroke="black" stroke-width="0.361038" stroke-miterlimit="10"/>
</g>
<defs>
<clipPath id="clip0_600_643">
<rect width="335" height="74" fill="white"/>
</clipPath>
</defs>
</svg>
