<svg width="926" height="206" viewBox="0 0 926 206" fill="none" xmlns="http://www.w3.org/2000/svg">
<g clip-path="url(#clip0_535_744)">
<path d="M44.8613 19.6555C50.6413 19.7951 56.0913 18.0807 61.9313 18.2102C68.7213 18.3597 75.3313 16.755 82.1913 16.7749C86.9813 16.7749 91.7813 16.7151 96.5713 16.7749C101.021 16.8247 104.711 15.2698 109.111 15.3296C114.921 15.3994 120.721 15.3296 126.531 15.3296C134.051 15.3296 140.631 13.4358 148.191 14.5721C156.511 15.8379 165.071 15.3097 173.501 15.3097" stroke="black" stroke-miterlimit="10"/>
<path d="M120 44.1458C122.35 42.6407 124.26 42.8301 127 42.7703C133.41 42.6506 139.63 39.6504 146 38.6736C157.65 36.8595 169.07 36.9392 180.81 36.9392C188.81 36.9392 196.94 37.2981 204.96 36.9392C211.71 36.6601 218.19 35.474 225.05 35.464C234.38 35.464 243.48 33.8792 252.76 33.9888C259.7 34.0686 266.63 33.9888 273.57 33.9888C279.26 33.9888 284.94 33.9888 290.63 33.9888C294.09 33.9888 296.34 32.9921 299.63 32.4438C301.77 32.095 304.32 32.5435 306.51 32.5236" stroke="black" stroke-miterlimit="10"/>
<path d="M433.67 5.24321C436.56 5.58211 439.33 4.53551 442.16 4.12684C447.45 3.35933 452.89 3.78794 458.22 3.80788C468.52 3.80788 478.82 3.71817 489.13 3.80788C494.72 3.87765 500.39 2.30277 505.87 1.2163C513.35 -0.24893 522.15 0.897342 529.73 0.897342H621.57" stroke="black" stroke-miterlimit="10"/>
<path d="M505.941 75.8434C508.871 76.1524 511.631 75.2952 514.501 74.8467C521.701 73.6805 529.031 72.5442 536.301 71.8564C548.184 70.6737 560.12 70.0981 572.061 70.132C580.871 70.132 589.681 70.132 598.491 70.132C610.291 70.2417 622.271 68.3976 634.001 67.3411C644.371 66.4041 655.201 67.1716 665.621 67.2314C673.971 67.2314 682.001 65.7363 690.311 65.7762C701.121 65.836 711.941 65.7762 722.751 65.7762" stroke="black" stroke-miterlimit="10"/>
<path d="M281.91 93.1281C287.29 93.2676 292.27 91.603 297.7 91.6529C304.55 91.7226 311.52 92.0416 318.36 91.7625C325.2 91.4834 331.73 90.2275 338.63 90.2474H351.39C364.98 90.2474 378.99 91.304 392.49 90.1278C399.66 89.4999 406.57 87.9449 413.82 89.1311C417.993 89.8401 422.217 90.2135 426.45 90.2474" stroke="black" stroke-miterlimit="10"/>
<path d="M20.291 94.573C34.291 94.573 48.291 92.7091 62.291 91.812C74.551 91.0345 87.051 91.7024 99.361 91.7024H127.601C131.601 91.7024 135.531 91.5827 139.491 91.6426C143.051 91.7024 146.951 93.6361 150.381 93.1377" stroke="black" stroke-miterlimit="10"/>
<path d="M101.23 119.062C109.78 119.292 118.47 117.069 127.01 116.471C141.59 115.524 156.31 116.182 170.91 116.182C177.37 116.182 185.16 117.477 190.85 114.736" stroke="black" stroke-miterlimit="10"/>
<path d="M189.4 202.622C201.77 202.931 214.15 201.256 226.54 201.077C240.26 200.878 253.99 201.247 267.7 201.924C279.49 202.492 291.5 203.519 303.29 202.333C307.56 201.914 312.37 201.944 316.57 201.257C321.52 200.439 325.79 198.715 331 198.266C339.34 197.618 347.41 196.851 355.8 196.791C361.88 196.791 367.67 198.177 373.73 198.316C387.91 198.635 402.14 198.266 416.33 198.266" stroke="black" stroke-miterlimit="10"/>
<path d="M435.121 160.848C468.291 160.848 501.501 161.376 534.671 160.848C544.351 160.699 553.841 157.858 563.671 157.918C568.521 157.918 573.521 157.549 578.351 157.858C581.841 158.077 584.841 159.762 588.351 159.373" stroke="black" stroke-miterlimit="10"/>
<path d="M724.201 123.39C744.031 123.39 763.671 119.732 783.481 118.984C787.601 118.835 791.211 119.124 795.271 118.336C798.361 117.748 801.491 118.037 804.521 117.489C806.751 117.08 808.601 116.223 810.911 116.143C825.461 115.635 840.121 113.223 854.801 113.303C865.311 113.363 875.601 112.027 886.081 111.857" stroke="black" stroke-miterlimit="10"/>
<path d="M708.301 22.5367C710.687 22.5489 713.067 22.3049 715.401 21.809C719.321 21.1013 723.271 21.5399 727.161 20.8123C731.388 19.9772 735.692 19.5897 740.001 19.656C750.891 19.656 761.791 19.656 772.681 19.656C783.351 19.656 793.681 18.2307 804.311 18.2107C812.501 18.2107 820.071 16.7754 828.311 16.7754" stroke="black" stroke-miterlimit="10"/>
<path d="M812.371 52.8282C819.911 52.8282 827.191 52.0308 834.721 51.5125C838.591 51.2434 842.481 51.682 846.341 51.4427C848.531 51.3132 850.201 50.3862 852.271 50.0672C857.341 49.2897 862.611 50.5357 867.691 49.6286C872.223 48.8345 876.82 48.4608 881.421 48.5123C890.201 48.5123 898.981 48.5123 907.761 48.5123C910.361 48.5123 914.021 49.1801 916.511 48.582C917.871 48.2531 918.581 47.356 919.991 47.0171C921.401 46.6782 923.571 47.0869 925.111 47.0171" stroke="black" stroke-miterlimit="10"/>
<path d="M0.0507812 205.501C13.0508 204.076 25.9008 201.693 38.9908 200.757C49.6508 199.989 60.1908 199.76 70.8608 199.76C77.6141 199.76 84.3641 199.76 91.1108 199.76" stroke="black" stroke-miterlimit="10"/>
<path d="M189.4 146.434C190.95 146.204 192 145.247 193.51 144.919C196.76 144.201 202.15 144.968 205.29 144.679C218.34 143.473 231.21 143.563 244.29 143.553H278.15C290.997 143.553 303.85 143.553 316.71 143.553C319.574 143.612 322.43 143.236 325.18 142.437C328.79 141.44 333.08 142.118 336.81 142.118" stroke="black" stroke-miterlimit="10"/>
<path d="M492.93 119.064C496.75 116.482 503.14 117.22 507.66 116.582C517.33 115.206 527.18 114.1 536.92 113.422C543.98 112.934 551.21 113.303 558.3 113.303C572.4 113.303 585.8 110.422 599.89 110.422" stroke="black" stroke-miterlimit="10"/>
</g>
<defs>
<clipPath id="clip0_535_744">
<rect width="925.11" height="206" fill="white"/>
</clipPath>
</defs>
</svg>
