<svg width="261" height="53" viewBox="0 0 261 53" fill="none" xmlns="http://www.w3.org/2000/svg">
<path d="M117.082 41.4234C117.443 41.3473 117.79 41.1842 118.166 41.1299C118.813 41.0393 119.471 41.0248 120.119 40.9233C120.684 40.8166 121.259 40.7765 121.833 40.8038C122.691 40.8708 123.551 41.0737 124.415 41.1263C124.897 41.1553 125.25 41.023 125.698 40.9596C126.585 40.8328 127.395 41.0375 128.21 41.3219C128.555 41.4433 128.933 41.6118 129.294 41.6988C129.558 41.764 129.836 41.6988 130.095 41.755C130.353 41.8111 131.26 42.0539 131.378 42.3293C131.197 42.7388 130.875 43.2932 130.512 43.5686C130.348 43.6936 130.17 43.8838 130.017 43.9907C129.863 44.0976 129.749 44.0287 129.655 44.1882C130.001 43.9418 130.422 44.0197 130.823 44.0197C131.224 44.0197 131.813 43.9074 132.189 44.0396C132.189 44.2353 132.008 44.402 131.931 44.5832C131.791 44.9307 131.628 45.2685 131.443 45.5941C131.212 45.9249 130.946 46.2288 130.648 46.5C129.674 47.4059 128.428 47.8987 127.395 48.7032C126.401 49.4714 125.275 49.8989 124.115 50.3736C123.058 50.7773 121.976 51.1126 120.877 51.3773C120.28 51.5021 119.677 51.5874 119.069 51.6328C118.301 51.7288 117.542 51.8702 116.773 51.9481C115.82 52.0441 114.834 51.9789 113.881 51.9789C112.602 51.9789 111.313 52.0205 110.034 51.9789C107.903 51.9191 105.973 51.4679 103.962 50.8302C102.639 50.4099 101.367 49.7431 100.155 49.08C99.9634 48.9474 99.7457 48.8583 99.5166 48.8191C99.1949 48.801 98.866 49.0112 98.548 49.051C98.1866 49.0981 97.7492 48.9677 97.4023 49.051C97.2794 49.0818 97.2415 49.1851 97.1204 49.2213C96.8963 49.2847 96.5782 49.2086 96.3379 49.2123C95.5988 49.2249 94.7242 49.6109 94.1405 50.0584C93.347 50.6459 92.4491 51.0763 91.4949 51.3266C91.4425 51.0512 91.7171 50.7215 91.8165 50.4751C92.0768 49.8246 92.1183 49.1017 92.2304 48.4133C92.4111 47.2682 92.4111 46.1069 92.4924 44.9473C92.5358 44.3204 92.5267 43.6972 92.5267 43.0685C92.5011 42.7206 92.4963 42.3715 92.5123 42.0231C92.5665 41.5756 92.5737 41.6046 93.0544 41.5104C93.2459 41.4723 93.5965 41.3455 93.7772 41.4397C94.1694 41.6299 94.6392 42.1771 95.0061 42.4326C95.8985 43.0456 96.7469 43.7206 97.545 44.4527C97.7807 44.7045 98.0723 44.897 98.3962 45.0144C99.0233 45.2227 99.4805 44.8132 99.9991 44.4799C100.689 44.0414 101.342 43.4943 102.066 43.1174C102.822 42.7261 103.653 42.6083 104.468 42.4072C106.389 41.9307 108.263 41.2966 110.213 40.9578C111.463 40.7484 112.724 40.6051 113.99 40.5284C114.773 40.448 115.564 40.4779 116.339 40.6172C116.7 40.6951 117.082 40.6534 117.423 40.7277C117.654 40.7784 118.155 40.744 118.327 40.9578" stroke="black" stroke-width="0.329032" stroke-miterlimit="10"/>
<path d="M154.74 19.4185C154.25 19.4602 153.785 19.286 153.294 19.257C152.533 19.2098 151.837 19.2933 151.082 19.1154C150.716 19.0551 150.359 18.9509 150.018 18.805C149.851 18.7179 149.725 18.5437 149.551 18.4911C149.232 18.3967 148.829 18.6435 148.485 18.6508C148.175 18.6753 147.864 18.6753 147.555 18.6508C147.405 18.629 147 18.3876 146.871 18.4893C146.682 18.6435 146.796 19.3386 146.796 19.5982C146.778 20.0508 146.828 20.5035 146.944 20.9412C147.007 21.1446 147.059 21.3512 147.101 21.5601C147.135 21.674 147.175 21.7861 147.22 21.8958C147.336 22.3115 147.195 22.669 147.426 23.0773C147.752 23.1173 148.07 22.8069 148.406 22.7743C148.639 22.7525 148.854 22.8069 149.085 22.7488C149.317 22.6908 149.542 22.6127 149.772 22.5528C150.001 22.4929 150.225 22.4984 150.459 22.4403C150.928 22.326 151.207 22.1209 151.678 22.2461C151.927 22.3332 152.195 22.3476 152.452 22.2879C152.717 22.2153 152.893 22.1064 153.175 22.1917C153.151 22.6853 153.955 23.0066 154.308 23.2425C154.731 23.5256 155.144 23.8559 155.632 24.0084C156.726 24.3336 157.862 24.489 159.003 24.4694C160.665 24.4585 162.136 25.4204 163.797 25.5293C164.866 25.6113 165.941 25.4704 166.954 25.1155C167.998 24.7525 168.992 24.2679 170.026 23.845C171.318 23.3242 172.632 23.0519 173.978 22.738C174.598 22.5946 175.189 22.375 175.803 22.2026C176.452 22.0211 177.155 21.8886 177.791 21.6726C178.347 21.4731 178.861 21.1729 179.309 20.7869C179.557 20.5749 179.777 20.3308 179.961 20.061C180.167 19.698 179.891 19.698 179.582 19.5963C178.851 19.3573 178.1 19.1812 177.339 19.07C177.339 18.8885 178.122 18.502 178.283 18.3713C178.433 18.2574 178.533 18.0893 178.561 17.9026C178.59 17.7159 178.545 17.5253 178.436 17.3713C178.165 16.9811 177.724 16.854 177.316 16.6653C174.719 15.462 171.726 15.5037 168.933 15.54C167.57 15.5564 166.238 15.3894 164.881 15.54C164.175 15.6163 163.463 15.5019 162.761 15.5709C162.245 15.6217 161.708 15.776 161.182 15.8449C160.474 15.9223 159.774 16.0577 159.088 16.2497C157.732 16.6671 156.453 17.3495 155.175 17.9466C154.714 18.1782 154.282 18.4646 153.888 18.7996C153.659 18.9811 153.211 19.2443 153.209 19.5637" stroke="black" stroke-width="0.329032" stroke-miterlimit="10"/>
<path d="M212.47 34.2868C211.501 34.0854 210.545 33.6697 209.578 33.5137C209.206 33.4538 208.772 33.5137 208.393 33.5137C208.055 33.5137 207.625 33.4465 207.309 33.5445C207.403 33.9075 207.851 34.1616 207.912 34.5863C207.974 35.011 208.08 35.4139 208.176 35.8567C208.276 36.247 208.337 36.6465 208.357 37.0491C208.369 37.2191 208.409 37.386 208.476 37.5428C208.519 37.7134 208.476 37.8912 208.617 38.0164C208.843 38.1979 209.788 37.8077 210.05 37.697C210.399 37.5482 210.729 37.5028 211.069 37.3123C211.671 36.9783 212.202 36.4629 212.932 36.4375C213.494 36.4175 213.962 36.6553 214.495 36.7496C214.913 36.8241 215.41 36.7388 215.836 36.7496C216.404 36.7496 216.91 36.5917 217.477 36.5972C218.045 36.6026 218.645 36.6117 219.226 36.5972C219.92 36.5827 220.542 36.3104 221.214 36.1725C221.776 36.0582 222.299 35.8513 222.85 35.717C223.646 35.5237 224.426 35.2676 225.183 34.9511C225.437 34.8422 225.66 34.7024 225.906 34.5972C226.086 34.5227 226.308 34.5427 226.352 34.3249C225.815 34.2262 225.271 34.1656 224.725 34.1434C224.295 34.1434 223.95 33.9619 223.518 33.9946C223.679 33.7913 224.241 33.6135 224.469 33.5409C224.697 33.4683 225.553 33.4265 225.589 33.098C225.322 33.0182 225.034 33.0581 224.762 32.9891C224.512 32.9299 224.255 32.9042 223.999 32.9129C223.348 32.9129 222.745 32.755 222.091 32.7605C221.961 32.7731 221.831 32.7731 221.702 32.7605C221.597 32.7387 221.521 32.657 221.446 32.6352C221.18 32.5873 220.909 32.5757 220.64 32.6008H219.037C217.92 32.6008 216.897 32.6262 215.833 32.8893C215.204 33.0484 214.59 33.2603 213.997 33.5227C213.684 33.6588 213.377 33.7895 213.07 33.9492C212.889 34.0454 212.475 34.4574 212.314 34.4429" stroke="black" stroke-width="0.329032" stroke-miterlimit="10"/>
<path d="M8.82787 20.5241C8.43754 20.0104 8.07431 19.4351 7.60627 18.9868C7.07679 18.4877 6.32503 18.3643 5.74134 17.9596C5.51364 17.7999 5.22631 17.4895 4.93537 17.4823C4.79441 17.4823 4.69864 17.5948 4.55588 17.6202C4.41312 17.6456 4.28481 17.5857 4.13121 17.642C3.88544 17.7345 3.75714 18.0467 3.61257 18.2246C3.468 18.4024 3.17706 18.4877 3.01261 18.6837C2.89515 18.8235 2.8319 18.9941 2.72709 19.1429C2.35844 19.6711 1.78739 20.074 1.53259 20.7074C1.36995 21.1066 1.41513 21.6148 1.35188 22.0232C1.26432 22.4378 1.21173 22.8592 1.19466 23.2827C1.19466 23.8272 1.03925 24.1902 1.04106 24.7346C1.04106 25.1412 0.836857 26.2501 1.33923 26.3572C1.78197 26.4534 2.6042 26.1031 3.0108 25.9942C3.43604 25.899 3.85029 25.7597 4.24686 25.5786C4.6625 25.368 5.0709 25.1757 5.51183 24.9996C5.98891 24.8054 6.39551 24.5713 6.85451 24.3408C7.48861 24.0173 8.15489 23.7618 8.84233 23.5785C10.0043 23.2791 11.1572 24.555 12.2306 24.849C13.1197 25.0958 13.9528 25.1121 14.8744 25.1121C15.4466 25.0957 16.0191 25.1212 16.5876 25.1884C17.1749 25.2737 17.8525 25.1484 18.4164 25.2991C19.591 25.6149 20.874 25.5713 22.1173 25.5713C22.8167 25.5713 23.516 25.5713 24.2172 25.5713C25.0701 25.5713 25.8833 25.4098 26.7381 25.4189C27.69 25.4383 28.64 25.3247 29.5608 25.0813C29.7849 25.0045 30.004 24.9136 30.2168 24.8091C30.7896 24.5767 31.4257 24.5405 31.9967 24.3154C33.4786 23.7328 34.9387 23.1157 36.426 22.5441C36.8521 22.3536 37.2599 22.1239 37.6439 21.858C37.9042 21.7037 38.3397 21.4134 37.9566 21.1575C37.8355 21.0758 37.6421 21.1302 37.5102 21.1302C37.184 21.122 36.8595 21.0807 36.5416 21.0068C36.2868 20.9578 34.9803 21.1266 34.9477 20.8526C35.6905 20.731 36.323 20.4515 37.0801 20.3516C37.409 20.3081 37.5915 20.3807 37.8716 20.1702C38.3704 19.8072 38.0722 19.7473 37.6295 19.6257C35.9218 19.1919 34.2267 18.8307 32.5027 18.466C31.7221 18.3008 30.9721 18.2699 30.1915 18.0394C29.4108 17.809 28.4928 17.818 27.6615 17.7273C27.3218 17.6892 27.0308 17.5585 26.6821 17.5948C26.3333 17.6311 25.9954 17.7345 25.6195 17.7436C24.8533 17.7654 24.069 17.7708 23.3028 17.7436C22.8365 17.7291 22.3992 17.5948 21.9258 17.573C21.3348 17.5476 20.7457 17.6002 20.153 17.5476C19.5392 17.4655 18.9195 17.4357 18.3007 17.4587C17.5996 17.5168 16.9255 17.5676 16.2243 17.5766C15.077 17.6236 13.9593 17.956 12.9716 18.544C12.4242 18.8616 11.8608 19.1506 11.2837 19.4097C10.9657 19.5622 10.7271 19.7981 10.3946 19.9306C10.1489 20.0304 9.8525 20.034 9.61577 20.1502C9.3447 20.2827 9.10074 20.3571 8.83329 20.495" stroke="black" stroke-width="0.329032" stroke-miterlimit="10"/>
<path d="M230.597 7.36195C230.207 6.84833 229.844 6.273 229.376 5.82472C228.846 5.32562 228.095 5.20221 227.511 4.79748C227.283 4.63777 226.996 4.32742 226.705 4.32016C226.564 4.32016 226.468 4.43269 226.325 4.45809C226.183 4.4835 226.054 4.42361 225.901 4.47987C225.655 4.57243 225.527 4.8846 225.382 5.06246C225.238 5.24032 224.947 5.32562 224.782 5.52163C224.665 5.66138 224.601 5.83198 224.497 5.9808C224.128 6.50894 223.557 6.91185 223.302 7.54525C223.139 7.94453 223.185 8.45271 223.121 8.86106C223.034 9.27573 222.981 9.69707 222.964 10.1206C222.964 10.6651 222.809 11.0281 222.811 11.5725C222.811 11.9791 222.606 13.088 223.109 13.1951C223.552 13.2913 224.374 12.941 224.78 12.8321C225.206 12.7369 225.62 12.5976 226.016 12.4165C226.432 12.2059 226.84 12.0136 227.281 11.8375C227.758 11.6433 228.165 11.4092 228.624 11.1787C229.258 10.8552 229.924 10.5997 230.612 10.4164C231.774 10.117 232.927 11.3929 234 11.6869C234.889 11.9337 235.722 11.95 236.644 11.95C237.216 11.9336 237.789 11.9591 238.357 12.0263C238.944 12.1116 239.622 11.9863 240.186 12.137C241.361 12.4528 242.644 12.4092 243.887 12.4092C244.586 12.4092 245.286 12.4092 245.987 12.4092C246.84 12.4092 247.653 12.2477 248.508 12.2568C249.46 12.2762 250.41 12.1626 251.33 11.9192C251.554 11.8424 251.774 11.7515 251.986 11.6469C252.559 11.4146 253.195 11.3783 253.766 11.1533C255.248 10.5707 256.708 9.95364 258.195 9.38194C258.622 9.19147 259.029 8.96181 259.413 8.69591C259.674 8.54164 260.109 8.25125 259.726 7.99535C259.605 7.91368 259.412 7.96813 259.28 7.96813C258.954 7.95993 258.629 7.91858 258.311 7.84471C258.056 7.79571 256.75 7.9645 256.717 7.69045C257.46 7.56885 258.092 7.28935 258.85 7.18953C259.179 7.14597 259.361 7.21857 259.641 7.00804C260.14 6.64506 259.842 6.58517 259.399 6.46357C257.691 6.02981 255.996 5.66864 254.272 5.30384C253.492 5.13869 252.742 5.10783 251.961 4.87734C251.18 4.64685 250.262 4.65592 249.431 4.56517C249.091 4.52706 248.8 4.39639 248.452 4.43269C248.103 4.46898 247.765 4.57243 247.389 4.58151C246.623 4.60329 245.839 4.60873 245.072 4.58151C244.606 4.56699 244.169 4.43269 243.695 4.41091C243.104 4.3855 242.515 4.43813 241.923 4.3855C241.309 4.30336 240.689 4.27361 240.07 4.29657C239.369 4.35464 238.695 4.40546 237.994 4.41454C236.847 4.46144 235.729 4.79385 234.741 5.38188C234.194 5.69949 233.63 5.98845 233.053 6.24759C232.735 6.40005 232.497 6.63599 232.164 6.76847C231.918 6.86829 231.622 6.87192 231.385 6.98808C231.114 7.12057 230.87 7.19498 230.603 7.33291" stroke="black" stroke-width="0.329032" stroke-miterlimit="10"/>
<path d="M71.4163 2.73617L71.3892 2.61276C70.8073 2.49842 70.4296 1.99932 69.8893 1.84687C69.5703 1.75351 69.2428 1.6927 68.9117 1.66537C68.6117 1.64723 68.2792 1.72708 67.9882 1.66537C67.7479 1.6073 67.681 1.52018 67.3702 1.52563C67.1547 1.52171 66.9422 1.47482 66.7449 1.38769C66.4305 1.29513 65.686 1.02471 65.3444 1.2425C65.1746 1.3514 64.8999 1.78697 64.8023 1.98661C64.7071 2.19463 64.6309 2.41089 64.5746 2.63272C64.4752 3.09915 64.5421 3.64725 64.5421 4.13184C64.5421 4.64364 64.4571 5.24437 64.5547 5.74166C64.6309 5.98872 64.6776 6.24399 64.6939 6.50211C64.6939 6.75801 64.6035 7.27707 64.7409 7.4876C65.1475 7.52571 65.6354 7.31881 66.0329 7.23533C66.4135 7.17244 66.7865 7.07027 67.1461 6.93042C67.5364 6.75982 67.8943 6.48396 68.2683 6.27887C68.6063 6.09738 68.9261 5.8324 69.2658 5.66543C69.5387 5.52932 70.1784 5.12096 70.4694 5.2226C70.52 5.51298 70.4152 5.53839 70.6935 5.81063C71.1308 6.24257 72.1391 6.42588 72.7048 6.5983C73.2012 6.77437 73.714 6.90022 74.2354 6.97398C74.5299 6.99939 74.81 6.8905 75.1389 6.89231C75.5835 6.89231 75.9557 7.01754 76.384 7.05021C77.3346 7.1228 78.2435 6.88505 79.1832 6.89231C80.1229 6.89957 81.0698 6.98487 81.9734 6.69993C83.0848 6.34965 84.1726 5.93041 85.2587 5.50754C86.1442 5.1627 87.008 4.69627 87.8989 4.40044C88.1392 4.3224 89.5253 3.63274 89.2452 3.2389C89.1042 3.03926 87.4381 3.20442 87.176 3.21894C87.5104 3.07193 87.9676 2.96122 88.1989 2.67446C88.6741 2.08643 87.7507 2.1191 87.3387 2.02473C85.9888 1.69986 84.6082 1.54378 83.2438 1.27335C82.3647 1.11171 81.4719 1.03694 80.5783 1.05012C78.6284 1.05012 76.6027 0.897668 74.6673 1.12453C74.1631 1.18442 73.6842 1.18624 73.2216 1.39132C72.927 1.52018 72.6216 1.62908 72.3343 1.77427C71.9729 1.95576 71.0513 2.30241 70.9591 2.73617" stroke="black" stroke-width="0.329032" stroke-miterlimit="10"/>
</svg>
