<svg width="229" height="86" viewBox="0 0 229 86" fill="none" xmlns="http://www.w3.org/2000/svg">
<g clip-path="url(#clip0_600_95)">
<path d="M88.3192 65.4516C89.0122 65.3051 89.6774 64.9912 90.3981 64.8865C91.6385 64.7121 92.8996 64.6842 94.1435 64.4889C95.2257 64.2834 96.328 64.2061 97.4281 64.2587C99.0738 64.3877 100.723 64.7784 102.379 64.8795C103.304 64.9353 103.98 64.6807 104.839 64.5586C106.54 64.3145 108.093 64.7086 109.655 65.2562C110.317 65.4899 111.041 65.8143 111.734 65.9817C112.24 66.1073 112.774 65.9817 113.269 66.0899C113.764 66.198 115.504 66.6654 115.729 67.1956C115.382 67.9839 114.766 69.0512 114.069 69.5814C113.754 69.822 113.414 70.1883 113.12 70.3941C112.825 70.5999 112.607 70.4673 112.427 70.7743C113.089 70.2999 113.896 70.4499 114.665 70.4499C115.434 70.4499 116.564 70.2336 117.285 70.4882C117.285 70.8649 116.938 71.1858 116.789 71.5346C116.521 72.2038 116.208 72.854 115.854 73.4809C115.412 74.1178 114.9 74.7028 114.329 75.2249C112.462 76.9689 110.074 77.9177 108.093 79.4663C106.187 80.9452 104.028 81.7684 101.804 82.6823C99.7777 83.4595 97.7038 84.1049 95.5952 84.6146C94.4522 84.8548 93.2948 85.0191 92.1305 85.1064C90.6579 85.2913 89.2027 85.5634 87.7267 85.7133C85.9008 85.8982 84.009 85.7726 82.1831 85.7726C79.7301 85.7726 77.2597 85.8529 74.8066 85.7726C70.7217 85.6575 67.0213 84.789 63.165 83.5612C60.6288 82.752 58.1896 81.4684 55.8648 80.1918C55.4985 79.9365 55.081 79.765 54.6417 79.6896C54.025 79.6547 53.3944 80.0593 52.7846 80.136C52.0917 80.2267 51.2532 79.9756 50.588 80.136C50.3523 80.1953 50.2796 80.3941 50.0474 80.4639C49.6178 80.586 49.008 80.4395 48.5472 80.4465C47.1301 80.4709 45.4532 81.2138 44.3341 82.0754C42.8128 83.2064 41.0912 84.035 39.2616 84.517C39.1612 83.9868 39.6878 83.352 39.8784 82.8776C40.3773 81.6254 40.457 80.2337 40.6718 78.9083C41.0183 76.7038 41.0183 74.468 41.1742 72.2357C41.2573 71.0289 41.24 69.829 41.24 68.6187C41.191 67.949 41.1817 67.2769 41.2123 66.6061C41.3162 65.7446 41.3301 65.8004 42.2517 65.619C42.619 65.5458 43.2912 65.3016 43.6376 65.483C44.3895 65.8492 45.2903 66.9026 45.9937 67.3944C47.7047 68.5746 49.3313 69.8741 50.8617 71.2835C51.3135 71.7683 51.8726 72.1388 52.4936 72.3648C53.6958 72.7659 54.5724 71.9776 55.5668 71.3358C56.8904 70.4917 58.1411 69.4384 59.5305 68.7128C60.9788 67.9594 62.5726 67.7327 64.1352 67.3456C67.8182 66.4282 71.4112 65.2074 75.1497 64.5552C77.5474 64.1521 79.9645 63.8762 82.391 63.7285C83.893 63.5737 85.4091 63.6313 86.8952 63.8994C87.5882 64.0494 88.3192 63.9692 88.9741 64.1122C89.4175 64.2098 90.3773 64.1436 90.7064 64.5552" stroke="white" stroke-miterlimit="10"/>
<path d="M142.459 30.694C141.52 30.7742 140.63 30.4394 139.687 30.3835C138.229 30.2929 136.895 30.4533 135.446 30.1115C134.745 29.9955 134.06 29.7953 133.406 29.515C133.087 29.3476 132.844 29.0128 132.512 28.9116C131.899 28.7302 131.126 29.2046 130.468 29.2186C129.874 29.2656 129.277 29.2656 128.683 29.2186C128.396 29.1767 127.62 28.7128 127.374 28.9081C127.01 29.2046 127.228 30.5405 127.228 31.0393C127.194 31.9091 127.29 32.7791 127.512 33.6204C127.633 34.0113 127.734 34.4083 127.814 34.8098C127.878 35.0288 127.955 35.2442 128.042 35.4551C128.264 36.2538 127.994 36.941 128.437 37.7258C129.061 37.8025 129.671 37.2061 130.315 37.1433C130.762 37.1014 131.174 37.2061 131.618 37.0945C132.061 36.9828 132.494 36.8329 132.934 36.7177C133.375 36.6026 133.804 36.6131 134.251 36.5015C135.152 36.2817 135.686 35.8876 136.59 36.1283C137.067 36.2956 137.581 36.3234 138.073 36.2085C138.582 36.069 138.918 35.8597 139.459 36.0236C139.414 36.9724 140.955 37.5897 141.631 38.0432C142.442 38.5873 143.235 39.2221 144.171 39.5151C146.267 40.1401 148.446 40.4389 150.633 40.4011C153.82 40.3801 156.64 42.2288 159.825 42.4381C161.875 42.5957 163.936 42.3249 165.877 41.6428C167.88 40.9452 169.786 40.0139 171.768 39.2012C174.245 38.2001 176.764 37.6769 179.345 37.0735C180.533 36.798 181.666 36.3759 182.844 36.0446C184.088 35.6958 185.436 35.4411 186.656 35.0261C187.721 34.6426 188.707 34.0656 189.566 33.3239C190.042 32.9164 190.463 32.4473 190.817 31.9287C191.212 31.2311 190.682 31.2311 190.089 31.0358C188.687 30.5764 187.249 30.238 185.789 30.0243C185.789 29.6755 187.29 28.9325 187.598 28.6814C187.886 28.4626 188.078 28.1395 188.133 27.7806C188.188 27.4218 188.102 27.0555 187.893 26.7595C187.373 26.0096 186.527 25.7654 185.744 25.4027C180.766 23.0902 175.028 23.1704 169.671 23.2401C167.059 23.2715 164.505 22.9506 161.903 23.2401C160.549 23.3866 159.184 23.1669 157.839 23.2994C156.848 23.3971 155.819 23.6936 154.811 23.8261C153.454 23.9748 152.111 24.2349 150.795 24.6039C148.197 25.4062 145.744 26.7177 143.294 27.8652C142.41 28.3104 141.581 28.8608 140.827 29.5046C140.387 29.8534 139.528 30.3591 139.524 30.973" stroke="white" stroke-miterlimit="10"/>
<path d="M15.1744 27.3724C14.426 26.3853 13.7296 25.2796 12.8322 24.4181C11.817 23.4589 10.3757 23.2217 9.25659 22.4439C8.82003 22.137 8.26913 21.5405 7.7113 21.5266C7.44105 21.5266 7.25742 21.7428 6.9837 21.7917C6.70999 21.8405 6.46399 21.7254 6.16948 21.8335C5.69828 22.0114 5.45228 22.6113 5.1751 22.9532C4.89792 23.295 4.34009 23.4589 4.0248 23.8356C3.79959 24.1042 3.67832 24.4321 3.47736 24.7181C2.77055 25.7331 1.67569 26.5074 1.18716 27.7247C0.875326 28.4921 0.961946 29.4687 0.840679 30.2535C0.672798 31.0505 0.571963 31.8602 0.539245 32.6742C0.539245 33.7206 0.241275 34.4182 0.24474 35.4646C0.24474 36.2459 -0.146778 38.3771 0.816425 38.5829C1.66529 38.7677 3.24176 38.0945 4.02133 37.8853C4.83665 37.7024 5.63088 37.4347 6.39123 37.0865C7.18812 36.6819 7.97116 36.3122 8.81656 35.9738C9.73126 35.6006 10.5108 35.1507 11.3909 34.7077C12.6066 34.0859 13.8841 33.5949 15.2021 33.2427C17.43 32.6672 19.6405 35.1193 21.6985 35.6843C23.4032 36.1587 25.0005 36.1901 26.7675 36.1901C27.8644 36.1586 28.9622 36.2075 30.0521 36.3366C31.1781 36.5005 32.4774 36.2599 33.5584 36.5494C35.8105 37.1563 38.2705 37.0726 40.6543 37.0726C41.9951 37.0726 43.336 37.0726 44.6803 37.0726C46.3157 37.0726 47.8748 36.7621 49.5137 36.7796C51.3388 36.817 53.1602 36.5986 54.9256 36.1308C55.3554 35.9832 55.7754 35.8085 56.1833 35.6076C57.2817 35.1611 58.5013 35.0914 59.5961 34.6589C62.4372 33.5392 65.2368 32.3533 68.0883 31.2546C68.9054 30.8885 69.6871 30.4472 70.4235 29.9361C70.9224 29.6396 71.7574 29.0816 71.0229 28.5898C70.7908 28.4328 70.42 28.5374 70.1671 28.5374C69.5417 28.5217 68.9195 28.4422 68.31 28.3003C67.8215 28.2061 65.3164 28.5305 65.2541 28.0038C66.6781 27.7701 67.8908 27.2329 69.3425 27.0411C69.9731 26.9574 70.323 27.0969 70.8601 26.6923C71.8163 25.9947 71.2446 25.8796 70.3958 25.6459C67.1216 24.8123 63.8716 24.1181 60.5662 23.4171C59.0695 23.0997 57.6316 23.0404 56.1348 22.5974C54.638 22.1544 52.8779 22.1718 51.2842 21.9974C50.6328 21.9242 50.075 21.6731 49.4063 21.7428C48.7376 21.8126 48.0896 22.0114 47.369 22.0288C45.8999 22.0707 44.3962 22.0812 42.9271 22.0288C42.0332 22.0009 41.1948 21.7428 40.287 21.701C39.154 21.6521 38.0245 21.7533 36.8881 21.6521C35.7112 21.4943 34.5231 21.4371 33.3367 21.4812C31.9924 21.5928 30.7 21.6905 29.3557 21.7079C27.156 21.7981 25.0129 22.4369 23.1191 23.567C22.0696 24.1774 20.9895 24.7328 19.883 25.2308C19.2732 25.5238 18.8159 25.9772 18.1783 26.2319C17.7071 26.4237 17.1389 26.4307 16.685 26.6539C16.1653 26.9085 15.6976 27.0515 15.1848 27.3166" stroke="white" stroke-miterlimit="10"/>
<path d="M112.338 3.50806L112.286 3.27088C111.171 3.05113 110.447 2.09193 109.411 1.79894C108.799 1.61952 108.171 1.50266 107.536 1.45014C106.961 1.41526 106.324 1.56873 105.766 1.45014C105.305 1.33853 105.177 1.1711 104.581 1.18157C104.168 1.17403 103.76 1.08392 103.382 0.916479C102.779 0.738591 101.352 0.21888 100.697 0.637439C100.371 0.846719 99.8445 1.68384 99.6574 2.06752C99.4749 2.4673 99.3288 2.88291 99.2208 3.30924C99.0303 4.20566 99.1585 5.25903 99.1585 6.19033C99.1585 7.17394 98.9956 8.32847 99.1827 9.28418C99.3288 9.75899 99.4184 10.2496 99.4495 10.7456C99.4495 11.2375 99.2763 12.235 99.5396 12.6396C100.319 12.7129 101.255 12.3152 102.017 12.1548C102.746 12.0339 103.462 11.8376 104.151 11.5688C104.9 11.2409 105.586 10.7108 106.303 10.3166C106.951 9.96783 107.564 9.45858 108.215 9.13768C108.739 8.87608 109.965 8.09128 110.523 8.28661C110.62 8.84469 110.419 8.89352 110.953 9.41672C111.791 10.2469 113.724 10.5992 114.809 10.9305C115.761 11.2689 116.744 11.5108 117.743 11.6525C118.308 11.7014 118.845 11.4921 119.476 11.4956C120.328 11.4956 121.042 11.7362 121.863 11.799C123.686 11.9385 125.428 11.4816 127.23 11.4956C129.032 11.5095 130.847 11.6735 132.58 11.1258C134.71 10.4527 136.796 9.64693 138.878 8.83423C140.576 8.17151 142.232 7.27509 143.941 6.70655C144.401 6.55657 147.059 5.23113 146.522 4.47423C146.252 4.09055 143.057 4.40796 142.555 4.43587C143.196 4.15334 144.072 3.94057 144.516 3.38947C145.427 2.25936 143.656 2.32214 142.866 2.14076C140.278 1.51641 137.631 1.21645 135.015 0.696735C133.33 0.386079 131.618 0.242385 129.905 0.267712C126.166 0.267712 122.282 -0.02528 118.572 0.410719C117.605 0.525823 116.687 0.529311 115.8 0.923455C115.235 1.1711 114.649 1.38038 114.099 1.65942C113.406 2.00822 111.639 2.67443 111.462 3.50806" stroke="white" stroke-miterlimit="10"/>
<path d="M202.186 58.5966C200.329 58.2095 198.496 57.4107 196.643 57.1107C195.929 56.9956 195.097 57.1107 194.37 57.1107C193.722 57.1107 192.897 56.9817 192.291 57.17C192.471 57.8676 193.33 58.3559 193.448 59.1721C193.566 59.9883 193.77 60.7627 193.954 61.6137C194.146 62.3638 194.262 63.1316 194.301 63.9053C194.324 64.2322 194.401 64.5528 194.529 64.8541C194.612 65.182 194.529 65.5238 194.8 65.7644C195.233 66.1132 197.045 65.3633 197.547 65.1506C198.216 64.8645 198.85 64.7773 199.501 64.4111C200.655 63.7693 201.674 62.7787 203.073 62.7299C204.151 62.6915 205.048 63.1485 206.07 63.3298C206.871 63.4728 207.824 63.3089 208.641 63.3298C209.729 63.3298 210.699 63.0264 211.787 63.0368C212.875 63.0473 214.025 63.0647 215.141 63.0368C216.472 63.0089 217.663 62.4857 218.952 62.2206C220.03 62.0009 221.031 61.6033 222.088 61.3452C223.615 60.9738 225.111 60.4816 226.561 59.8732C227.05 59.6639 227.476 59.3954 227.947 59.1931C228.293 59.0501 228.72 59.0884 228.803 58.6699C227.773 58.4802 226.731 58.3637 225.684 58.3211C224.86 58.3211 224.198 57.9723 223.37 58.0351C223.678 57.6444 224.756 57.3026 225.192 57.1631C225.629 57.0235 227.271 56.9433 227.341 56.312C226.828 56.1585 226.277 56.2352 225.754 56.1027C225.275 55.9888 224.783 55.9395 224.292 55.9562C223.044 55.9562 221.887 55.6527 220.633 55.6632C220.385 55.6875 220.136 55.6875 219.888 55.6632C219.687 55.6214 219.541 55.4644 219.396 55.4225C218.886 55.3304 218.366 55.3081 217.851 55.3563H214.777C212.636 55.3563 210.675 55.4051 208.634 55.9109C207.429 56.2166 206.252 56.6238 205.114 57.1282C204.515 57.3898 203.926 57.6409 203.337 57.9479C202.99 58.1327 202.197 58.9245 201.888 58.8966" stroke="white" stroke-miterlimit="10"/>
</g>
<defs>
<clipPath id="clip0_600_95">
<rect width="229" height="86" fill="white"/>
</clipPath>
</defs>
</svg>
