<svg width="363" height="136" viewBox="0 0 363 136" fill="none" xmlns="http://www.w3.org/2000/svg">
<g clip-path="url(#clip0_477_667)">
<path d="M140.003 103.505C141.101 103.274 142.155 102.777 143.298 102.612C145.264 102.336 147.263 102.292 149.235 101.983C150.95 101.658 152.698 101.536 154.441 101.619C157.05 101.823 159.664 102.441 162.29 102.601C163.756 102.689 164.827 102.286 166.189 102.093C168.886 101.707 171.346 102.33 173.823 103.196C174.872 103.566 176.02 104.079 177.119 104.344C177.92 104.542 178.766 104.344 179.552 104.515C180.337 104.686 183.094 105.425 183.451 106.263C182.902 107.51 181.924 109.198 180.82 110.036C180.321 110.417 179.782 110.996 179.316 111.321C178.849 111.647 178.503 111.437 178.217 111.923C179.266 111.172 180.546 111.41 181.765 111.41C182.984 111.41 184.775 111.068 185.917 111.47C185.917 112.066 185.368 112.573 185.132 113.125C184.707 114.183 184.211 115.211 183.649 116.203C182.948 117.21 182.138 118.135 181.232 118.961C178.272 121.719 174.488 123.219 171.346 125.668C168.326 128.007 164.904 129.309 161.378 130.754C158.166 131.983 154.878 133.004 151.536 133.81C149.724 134.189 147.89 134.449 146.044 134.587C143.71 134.88 141.403 135.31 139.063 135.547C136.169 135.839 133.17 135.641 130.276 135.641C126.387 135.641 122.471 135.768 118.583 135.641C112.108 135.459 106.242 134.085 100.129 132.144C96.109 130.864 92.2425 128.834 88.5573 126.815C87.9766 126.412 87.3148 126.14 86.6185 126.021C85.6409 125.966 84.6414 126.606 83.6747 126.727C82.5763 126.871 81.2472 126.473 80.1927 126.727C79.8192 126.821 79.7039 127.135 79.3359 127.246C78.6549 127.439 77.6883 127.207 76.9578 127.218C74.7115 127.257 72.0533 128.432 70.2793 129.794C67.8678 131.583 65.1389 132.893 62.2388 133.655C62.0795 132.817 62.9143 131.813 63.2164 131.063C64.0072 129.083 64.1336 126.882 64.4741 124.786C65.0233 121.3 65.0233 117.764 65.2704 114.234C65.4022 112.325 65.3748 110.428 65.3748 108.514C65.2971 107.455 65.2824 106.392 65.3309 105.331C65.4956 103.969 65.5176 104.057 66.9785 103.77C67.5607 103.654 68.6262 103.268 69.1754 103.555C70.3672 104.134 71.7951 105.8 72.9101 106.578C75.6223 108.444 78.2008 110.499 80.6266 112.728C81.3427 113.494 82.2291 114.08 83.2134 114.438C85.1192 115.072 86.5087 113.826 88.0849 112.811C90.183 111.476 92.1656 109.81 94.368 108.663C96.6637 107.471 99.1901 107.113 101.667 106.5C107.505 105.05 113.201 103.119 119.127 102.088C122.928 101.45 126.759 101.014 130.605 100.78C132.986 100.536 135.389 100.627 137.745 101.051C138.844 101.288 140.002 101.161 141.041 101.387C141.744 101.542 143.265 101.437 143.787 102.088" stroke="black" stroke-miterlimit="10"/>
<path d="M225.823 48.539C224.334 48.6658 222.923 48.1363 221.429 48.048C219.117 47.9046 217.002 48.1584 214.707 47.6178C213.595 47.4344 212.509 47.1177 211.472 46.6746C210.966 46.4098 210.582 45.8803 210.055 45.7203C209.083 45.4335 207.858 46.1837 206.814 46.2057C205.873 46.2801 204.927 46.2801 203.986 46.2057C203.53 46.1395 202.3 45.4059 201.91 45.7148C201.333 46.1837 201.679 48.2963 201.679 49.085C201.626 50.4606 201.777 51.8364 202.129 53.1668C202.321 53.7849 202.481 54.4128 202.607 55.0477C202.71 55.3941 202.831 55.7347 202.97 56.0682C203.321 57.3313 202.893 58.4179 203.596 59.659C204.584 59.7804 205.551 58.8371 206.573 58.7379C207.281 58.6717 207.935 58.8371 208.638 58.6606C209.341 58.4841 210.027 58.2469 210.725 58.0649C211.422 57.8829 212.103 57.8994 212.812 57.7229C214.24 57.3754 215.086 56.7521 216.519 57.1327C217.275 57.3973 218.09 57.4413 218.87 57.2596C219.677 57.039 220.21 56.708 221.067 56.9672C220.995 58.4676 223.439 59.4439 224.51 60.161C225.795 61.0214 227.053 62.0253 228.536 62.4887C231.859 63.477 235.313 63.9495 238.779 63.8897C243.832 63.8566 248.302 66.78 253.35 67.111C256.6 67.3602 259.867 66.9321 262.944 65.8534C266.119 64.7502 269.14 63.2774 272.281 61.9922C276.208 60.4092 280.201 59.5818 284.292 58.6275C286.176 58.1918 287.972 57.5244 289.84 57.0003C291.811 56.4488 293.948 56.0461 295.881 55.3897C297.57 54.7832 299.133 53.8709 300.494 52.6979C301.249 52.0535 301.916 51.3116 302.477 50.4916C303.103 49.3884 302.263 49.3884 301.324 49.0795C299.101 48.3531 296.821 47.8179 294.508 47.4799C294.508 46.9283 296.886 45.7534 297.375 45.3563C297.831 45.0103 298.135 44.4993 298.222 43.9318C298.309 43.3643 298.173 42.785 297.842 42.317C297.018 41.1311 295.678 40.745 294.436 40.1713C286.544 36.5143 277.449 36.6412 268.958 36.7515C264.817 36.8011 260.769 36.2937 256.645 36.7515C254.497 36.9831 252.333 36.6356 250.203 36.8453C248.632 36.9997 247.001 37.4685 245.402 37.6781C243.251 37.9133 241.122 38.3247 239.037 38.9082C234.918 40.1769 231.029 42.2508 227.146 44.0656C225.744 44.7695 224.431 45.6399 223.236 46.658C222.538 47.2096 221.176 48.0094 221.171 48.9802" stroke="black" stroke-miterlimit="10"/>
<path d="M24.0562 43.2884C22.8699 41.7274 21.766 39.9788 20.3435 38.6164C18.7343 37.0995 16.4495 36.7245 14.6756 35.4944C13.9836 35.009 13.1103 34.0658 12.2261 34.0437C11.7977 34.0437 11.5066 34.3857 11.0727 34.4629C10.6388 34.5402 10.2489 34.3581 9.78204 34.5291C9.0351 34.8104 8.64516 35.7592 8.20578 36.2997C7.76641 36.8403 6.88217 37.0995 6.38238 37.6953C6.02539 38.12 5.83316 38.6385 5.51462 39.0908C4.39421 40.6959 2.65868 41.9204 1.88429 43.8455C1.38999 45.059 1.5273 46.6034 1.33507 47.8445C1.06895 49.1048 0.909113 50.3853 0.85725 51.6725C0.85725 53.3273 0.384923 54.4305 0.390415 56.0853C0.390415 57.3208 -0.230201 60.691 1.29662 61.0165C2.64221 61.3088 5.14115 60.2443 6.37689 59.9133C7.66929 59.6241 8.92827 59.2008 10.1335 58.6502C11.3967 58.0103 12.638 57.4256 13.9781 56.8906C15.428 56.3004 16.6637 55.5888 18.0587 54.8883C19.9859 53.905 22.0109 53.1285 24.1001 52.5716C27.6316 51.6615 31.1356 55.5392 34.398 56.4328C37.1001 57.1829 39.632 57.2326 42.433 57.2326C44.1719 57.1827 45.912 57.2601 47.6396 57.4642C49.4246 57.7235 51.4841 57.3429 53.1977 57.8007C56.7676 58.7605 60.6671 58.6281 64.4457 58.6281C66.5712 58.6281 68.6966 58.6281 70.8276 58.6281C73.4199 58.6281 75.8914 58.1372 78.4892 58.1648C81.3823 58.2239 84.2696 57.8786 87.068 57.1388C87.7492 56.9054 88.4151 56.6291 89.0616 56.3114C90.8026 55.6054 92.7359 55.4951 94.4714 54.8111C98.975 53.0405 103.413 51.1651 107.933 49.4276C109.228 48.8487 110.467 48.1507 111.634 47.3426C112.425 46.8737 113.749 45.9912 112.585 45.2134C112.217 44.9652 111.629 45.1307 111.228 45.1307C110.237 45.1058 109.25 44.9801 108.284 44.7556C107.51 44.6067 103.539 45.1197 103.44 44.2868C105.697 43.9172 107.62 43.0677 109.921 42.7644C110.92 42.632 111.475 42.8526 112.326 42.2128C113.842 41.1096 112.936 40.9276 111.591 40.558C106.4 39.2397 101.249 38.142 96.0092 37.0334C93.6366 36.5314 91.3574 36.4376 88.9847 35.7371C86.6121 35.0366 83.8221 35.0642 81.2957 34.7884C80.2632 34.6725 79.3789 34.2754 78.3189 34.3857C77.2589 34.496 76.2319 34.8104 75.0895 34.838C72.7608 34.9042 70.3772 34.9208 68.0486 34.838C66.6316 34.7939 65.3025 34.3857 63.8635 34.3195C62.0676 34.2423 60.2771 34.4023 58.4757 34.2423C56.6102 33.9927 54.7269 33.9022 52.8462 33.972C50.7152 34.1485 48.6667 34.303 46.5357 34.3306C43.0488 34.4731 39.6518 35.4834 36.6498 37.2705C34.9862 38.2358 33.274 39.114 31.5201 39.9016C30.5535 40.365 29.8285 41.082 28.8179 41.4847C28.071 41.7881 27.1703 41.7991 26.4508 42.1521C25.627 42.5548 24.8855 42.7809 24.0727 43.2001" stroke="black" stroke-miterlimit="10"/>
<path d="M178.078 5.54808L177.996 5.173C176.228 4.8255 175.08 3.30863 173.438 2.84529C172.468 2.56156 171.473 2.37676 170.466 2.2937C169.555 2.23854 168.544 2.48124 167.66 2.2937C166.929 2.11719 166.726 1.85243 165.781 1.86898C165.127 1.85706 164.481 1.71456 163.881 1.44977C162.925 1.16846 160.663 0.34659 159.625 1.0085C159.108 1.33945 158.274 2.66327 157.977 3.27002C157.688 3.90223 157.456 4.55947 157.285 5.23368C156.983 6.65126 157.186 8.31706 157.186 9.78981C157.186 11.3453 156.928 13.1711 157.225 14.6824C157.456 15.4333 157.598 16.2091 157.648 16.9936C157.648 17.7713 157.373 19.3489 157.79 19.9887C159.026 20.1045 160.509 19.4757 161.717 19.222C162.874 19.0309 164.007 18.7203 165.1 18.2953C166.287 17.7768 167.374 16.9384 168.511 16.3151C169.538 15.7635 170.51 14.9582 171.543 14.4507C172.372 14.0371 174.316 12.796 175.201 13.1049C175.354 13.9874 175.036 14.0646 175.882 14.892C177.211 16.2048 180.275 16.7619 181.994 17.2859C183.503 17.821 185.062 18.2035 186.646 18.4277C187.541 18.5049 188.393 18.174 189.392 18.1795C190.743 18.1795 191.875 18.5601 193.176 18.6594C196.065 18.88 198.828 18.1574 201.684 18.1795C204.54 18.2016 207.418 18.4608 210.164 17.5948C213.541 16.5302 216.848 15.2561 220.148 13.9709C222.84 12.9228 225.465 11.5053 228.173 10.6062C228.903 10.369 233.116 8.27294 232.264 7.07599C231.836 6.46924 226.772 6.97118 225.976 7.01531C226.992 6.56852 228.381 6.23205 229.084 5.36054C230.529 3.57339 227.722 3.67268 226.47 3.38585C222.367 2.3985 218.171 1.92414 214.025 1.10227C211.353 0.610998 208.64 0.383761 205.924 0.423812C199.998 0.423812 193.841 -0.0395234 187.959 0.649964C186.427 0.831989 184.971 0.837505 183.565 1.4608C182.67 1.85243 181.742 2.18338 180.868 2.62466C179.77 3.17625 176.969 4.22978 176.689 5.54808" stroke="black" stroke-miterlimit="10"/>
<path d="M320.496 92.6653C317.552 92.0531 314.647 90.7899 311.709 90.3156C310.577 90.1335 309.259 90.3156 308.106 90.3156C307.079 90.3156 305.772 90.1115 304.811 90.4093C305.096 91.5125 306.458 92.2847 306.645 93.5754C306.832 94.8662 307.156 96.0907 307.447 97.4366C307.752 98.6228 307.936 99.837 307.996 101.061C308.033 101.577 308.156 102.084 308.359 102.561C308.49 103.079 308.358 103.62 308.787 104.001C309.473 104.552 312.346 103.366 313.142 103.03C314.202 102.577 315.207 102.439 316.24 101.86C318.069 100.845 319.683 99.2789 321.902 99.2017C323.61 99.141 325.033 99.8636 326.653 100.15C327.922 100.377 329.432 100.117 330.728 100.15C332.453 100.15 333.99 99.6705 335.715 99.6871C337.44 99.7036 339.263 99.7312 341.031 99.6871C343.14 99.6429 345.03 98.8156 347.073 98.3963C348.781 98.0488 350.368 97.42 352.043 97.0119C354.464 96.4245 356.835 95.6462 359.134 94.6841C359.908 94.3532 360.584 93.9285 361.331 93.6085C361.88 93.3824 362.555 93.4431 362.687 92.7812C361.054 92.4813 359.403 92.2969 357.744 92.2296C356.437 92.2296 355.388 91.678 354.075 91.7773C354.564 91.1595 356.272 90.6189 356.964 90.3983C357.656 90.1777 360.26 90.0508 360.369 89.0524C359.557 88.8097 358.683 88.9311 357.854 88.7215C357.095 88.5413 356.316 88.4634 355.536 88.4898C353.559 88.4898 351.725 88.0099 349.737 88.0265C349.344 88.0649 348.948 88.0649 348.556 88.0265C348.237 87.9603 348.007 87.712 347.776 87.6459C346.968 87.5001 346.144 87.4649 345.326 87.5411H340.455C337.061 87.5411 333.952 87.6183 330.717 88.4181C328.807 88.9016 326.94 89.5455 325.137 90.3431C324.187 90.7568 323.253 91.154 322.32 91.6394C321.77 91.9317 320.513 93.1838 320.024 93.1397" stroke="black" stroke-miterlimit="10"/>
</g>
<defs>
<clipPath id="clip0_477_667">
<rect width="363" height="136" fill="white"/>
</clipPath>
</defs>
</svg>
