<svg width="229" height="86" viewBox="0 0 229 86" fill="none" xmlns="http://www.w3.org/2000/svg">
<g clip-path="url(#clip0_600_1130)">
<path d="M88.3199 65.4514C89.0129 65.305 89.6781 64.991 90.3988 64.8864C91.6392 64.712 92.9004 64.6841 94.1442 64.4888C95.2264 64.2832 96.3288 64.206 97.4288 64.2586C99.0746 64.3876 100.724 64.7783 102.38 64.8794C103.305 64.9352 103.981 64.6806 104.84 64.5585C106.541 64.3144 108.093 64.7085 109.656 65.2561C110.318 65.4898 111.042 65.8142 111.735 65.9816C112.241 66.1072 112.774 65.9816 113.27 66.0898C113.765 66.1979 115.504 66.6653 115.73 67.1954C115.383 67.9837 114.766 69.0511 114.07 69.5812C113.755 69.8219 113.415 70.1882 113.121 70.3939C112.826 70.5997 112.608 70.4672 112.428 70.7741C113.09 70.2998 113.897 70.4497 114.666 70.4497C115.435 70.4497 116.565 70.2335 117.285 70.4881C117.285 70.8648 116.939 71.1857 116.79 71.5345C116.522 72.2036 116.209 72.8539 115.854 73.4808C115.413 74.1177 114.901 74.7026 114.33 75.2248C112.462 76.9688 110.075 77.9175 108.093 79.4662C106.188 80.9451 104.029 81.7683 101.805 82.6821C99.7784 83.4594 97.7045 84.1048 95.5959 84.6145C94.453 84.8546 93.2956 85.0189 92.1312 85.1063C90.6587 85.2912 89.2035 85.5632 87.7275 85.7132C85.9015 85.8981 84.0098 85.7725 82.1839 85.7725C79.7308 85.7725 77.2604 85.8527 74.8074 85.7725C70.7224 85.6574 67.0221 84.7889 63.1658 83.5611C60.6296 82.7519 58.1904 81.4683 55.8655 80.1917C55.4992 79.9363 55.0817 79.7649 54.6425 79.6894C54.0257 79.6546 53.3951 80.0592 52.7853 80.1359C52.0924 80.2266 51.2539 79.9755 50.5887 80.1359C50.3531 80.1952 50.2803 80.394 50.0482 80.4638C49.6186 80.5859 49.0088 80.4394 48.5479 80.4463C47.1309 80.4708 45.4539 81.2137 44.3348 82.0752C42.8135 83.2063 41.092 84.0349 39.2624 84.5168C39.1619 83.9867 39.6885 83.3518 39.8791 82.8775C40.378 81.6253 40.4577 80.2336 40.6725 78.9081C41.019 76.7037 41.019 74.4679 41.1749 72.2356C41.2581 71.0288 41.2408 69.8289 41.2408 68.6185C41.1917 67.9488 41.1825 67.2768 41.213 66.606C41.317 65.7444 41.3308 65.8003 42.2525 65.6189C42.6197 65.5456 43.2919 65.3015 43.6384 65.4828C44.3902 65.8491 45.2911 66.9025 45.9944 67.3943C47.7054 68.5744 49.3321 69.874 50.8624 71.2834C51.3142 71.7681 51.8733 72.1386 52.4943 72.3647C53.6966 72.7658 54.5732 71.9775 55.5675 71.3357C56.8911 70.4916 58.1419 69.4382 59.5312 68.7127C60.9795 67.9593 62.5733 67.7326 64.1359 67.3454C67.8189 66.4281 71.4119 65.2073 75.1504 64.555C77.5481 64.152 79.9652 63.8761 82.3917 63.7284C83.8937 63.5736 85.4098 63.6311 86.8959 63.8993C87.5889 64.0493 88.3199 63.9691 88.9748 64.1121C89.4183 64.2097 90.378 64.1435 90.7072 64.555" stroke="black" stroke-miterlimit="10"/>
<path d="M142.459 30.6939C141.52 30.7741 140.63 30.4393 139.687 30.3835C138.229 30.2928 136.895 30.4532 135.446 30.1114C134.745 29.9955 134.06 29.7952 133.406 29.515C133.087 29.3476 132.844 29.0127 132.512 28.9116C131.899 28.7302 131.126 29.2045 130.468 29.2185C129.874 29.2655 129.277 29.2655 128.683 29.2185C128.396 29.1766 127.62 28.7127 127.374 28.9081C127.01 29.2045 127.228 30.5404 127.228 31.0392C127.194 31.9091 127.29 32.7791 127.512 33.6203C127.633 34.0112 127.734 34.4082 127.814 34.8098C127.878 35.0288 127.955 35.2442 128.042 35.455C128.264 36.2538 127.994 36.9409 128.437 37.7257C129.061 37.8025 129.671 37.206 130.315 37.1432C130.762 37.1014 131.174 37.206 131.618 37.0944C132.061 36.9828 132.494 36.8328 132.934 36.7177C133.375 36.6026 133.804 36.613 134.251 36.5014C135.152 36.2817 135.686 35.8875 136.59 36.1282C137.067 36.2955 137.581 36.3233 138.073 36.2084C138.582 36.0689 138.918 35.8596 139.459 36.0236C139.414 36.9723 140.955 37.5897 141.631 38.0431C142.442 38.5873 143.235 39.2221 144.171 39.5151C146.267 40.14 148.446 40.4388 150.633 40.401C153.82 40.3801 156.64 42.2287 159.825 42.438C161.875 42.5956 163.936 42.3249 165.877 41.6427C167.88 40.9451 169.786 40.0138 171.768 39.2011C174.245 38.2001 176.764 37.6769 179.345 37.0735C180.533 36.7979 181.666 36.3759 182.844 36.0445C184.088 35.6957 185.436 35.4411 186.656 35.026C187.721 34.6425 188.707 34.0656 189.566 33.3239C190.042 32.9163 190.463 32.4472 190.817 31.9287C191.212 31.2311 190.682 31.2311 190.089 31.0357C188.687 30.5764 187.249 30.238 185.789 30.0242C185.789 29.6754 187.29 28.9325 187.598 28.6813C187.886 28.4626 188.078 28.1394 188.133 27.7806C188.188 27.4217 188.102 27.0554 187.893 26.7595C187.373 26.0095 186.527 25.7654 185.744 25.4026C180.766 23.0901 175.028 23.1703 169.671 23.2401C167.059 23.2715 164.505 22.9506 161.903 23.2401C160.549 23.3866 159.184 23.1668 157.839 23.2994C156.848 23.397 155.819 23.6935 154.811 23.8261C153.454 23.9747 152.111 24.2349 150.795 24.6039C148.197 25.4061 145.744 26.7176 143.294 27.8652C142.41 28.3103 141.581 28.8607 140.827 29.5045C140.387 29.8533 139.528 30.3591 139.524 30.973" stroke="black" stroke-miterlimit="10"/>
<path d="M15.1746 27.3724C14.4263 26.3853 13.7298 25.2796 12.8325 24.4181C11.8173 23.4589 10.3759 23.2217 9.25683 22.4438C8.82027 22.1369 8.26937 21.5405 7.71155 21.5265C7.4413 21.5265 7.25766 21.7428 6.98395 21.7916C6.71023 21.8404 6.46423 21.7253 6.16973 21.8334C5.69852 22.0113 5.45252 22.6113 5.17534 22.9531C4.89816 23.2949 4.34033 23.4589 4.02504 23.8356C3.79983 24.1041 3.67856 24.432 3.47761 24.718C2.7708 25.733 1.67593 26.5074 1.1874 27.7247C0.875571 28.492 0.96219 29.4687 0.840923 30.2535C0.673042 31.0504 0.572207 31.8602 0.539489 32.6741C0.539489 33.7205 0.241519 34.4181 0.244984 35.4645C0.244984 36.2458 -0.146534 38.377 0.81667 38.5828C1.66554 38.7677 3.242 38.0945 4.02157 37.8852C4.83689 37.7023 5.63112 37.4346 6.39147 37.0864C7.18837 36.6818 7.9714 36.3121 8.81681 35.9738C9.7315 35.6006 10.5111 35.1506 11.3911 34.7076C12.6069 34.0858 13.8843 33.5948 15.2024 33.2427C17.4302 32.6672 19.6407 35.1192 21.6988 35.6843C23.4035 36.1586 25.0007 36.19 26.7677 36.19C27.8647 36.1585 28.9625 36.2075 30.0523 36.3365C31.1784 36.5005 32.4777 36.2598 33.5587 36.5493C35.8108 37.1562 38.2707 37.0725 40.6545 37.0725C41.9954 37.0725 43.3362 37.0725 44.6806 37.0725C46.3159 37.0725 47.8751 36.7621 49.5139 36.7795C51.339 36.8169 53.1605 36.5985 54.9259 36.1307C55.3556 35.9832 55.7757 35.8084 56.1836 35.6075C57.2819 35.1611 58.5015 35.0913 59.5964 34.6588C62.4375 33.5392 65.237 32.3532 68.0885 31.2545C68.9056 30.8885 69.6874 30.4471 70.4237 29.9361C70.9227 29.6396 71.7577 29.0815 71.0231 28.5897C70.791 28.4327 70.4203 28.5374 70.1674 28.5374C69.5419 28.5216 68.9197 28.4421 68.3102 28.3002C67.8217 28.206 65.3167 28.5304 65.2543 28.0037C66.6783 27.77 67.891 27.2329 69.3427 27.041C69.9733 26.9573 70.3233 27.0968 70.8603 26.6922C71.8166 25.9946 71.2449 25.8795 70.396 25.6458C67.1218 24.8122 63.8719 24.1181 60.5665 23.417C59.0697 23.0996 57.6318 23.0403 56.1351 22.5973C54.6383 22.1543 52.8782 22.1718 51.2844 21.9974C50.633 21.9241 50.0752 21.673 49.4065 21.7428C48.7378 21.8125 48.0899 22.0113 47.3692 22.0288C45.9002 22.0706 44.3964 22.0811 42.9274 22.0288C42.0335 22.0009 41.195 21.7428 40.2872 21.7009C39.1543 21.6521 38.0248 21.7532 36.8883 21.6521C35.7114 21.4942 34.5234 21.437 33.3369 21.4812C31.9926 21.5928 30.7002 21.6904 29.3559 21.7079C27.1562 21.798 25.0132 22.4369 23.1193 23.567C22.0699 24.1774 20.9897 24.7327 19.8833 25.2308C19.2735 25.5237 18.8161 25.9772 18.1786 26.2318C17.7074 26.4236 17.1392 26.4306 16.6853 26.6539C16.1656 26.9085 15.6978 27.0515 15.185 27.3166" stroke="black" stroke-miterlimit="10"/>
<path d="M112.339 3.50794L112.287 3.27075C111.172 3.05101 110.447 2.09181 109.411 1.79882C108.8 1.6194 108.172 1.50254 107.537 1.45002C106.962 1.41514 106.324 1.56861 105.766 1.45002C105.306 1.3384 105.177 1.17098 104.582 1.18144C104.168 1.17391 103.761 1.0838 103.383 0.916357C102.78 0.738469 101.352 0.218758 100.698 0.637317C100.372 0.846597 99.8452 1.68372 99.6581 2.06739C99.4757 2.46718 99.3295 2.88279 99.2216 3.30912C99.031 4.20554 99.1592 5.25891 99.1592 6.1902C99.1592 7.17382 98.9964 8.32835 99.1834 9.28406C99.3295 9.75886 99.4191 10.2495 99.4502 10.7455C99.4502 11.2373 99.277 12.2349 99.5403 12.6395C100.32 12.7128 101.255 12.3151 102.018 12.1547C102.747 12.0338 103.462 11.8375 104.152 11.5687C104.9 11.2408 105.586 10.7106 106.304 10.3165C106.951 9.9677 107.565 9.45846 108.216 9.13756C108.739 8.87596 109.966 8.09116 110.524 8.28649C110.621 8.84457 110.42 8.8934 110.953 9.4166C111.792 10.2467 113.725 10.599 114.81 10.9304C115.761 11.2688 116.745 11.5106 117.744 11.6524C118.309 11.7012 118.846 11.492 119.477 11.4954C120.329 11.4954 121.043 11.7361 121.864 11.7989C123.686 11.9384 125.429 11.4815 127.231 11.4954C129.032 11.5094 130.848 11.6733 132.58 11.1257C134.711 10.4525 136.797 9.64681 138.879 8.8341C140.577 8.17139 142.233 7.27497 143.941 6.70643C144.402 6.55644 147.06 5.23101 146.522 4.47411C146.252 4.09043 143.058 4.40784 142.555 4.43574C143.196 4.15322 144.073 3.94045 144.516 3.38934C145.428 2.25923 143.657 2.32202 142.867 2.14064C140.279 1.51629 137.632 1.21632 135.016 0.696613C133.331 0.385957 131.619 0.242263 129.905 0.26759C126.167 0.26759 122.283 -0.0254021 118.572 0.410597C117.606 0.525701 116.687 0.529189 115.8 0.923333C115.236 1.17098 114.65 1.38026 114.099 1.6593C113.406 2.0081 111.639 2.67431 111.463 3.50794" stroke="black" stroke-miterlimit="10"/>
<path d="M202.186 58.5966C200.329 58.2095 198.496 57.4107 196.643 57.1107C195.929 56.9956 195.097 57.1107 194.37 57.1107C193.722 57.1107 192.897 56.9817 192.291 57.17C192.471 57.8676 193.33 58.3559 193.448 59.1721C193.566 59.9883 193.77 60.7627 193.954 61.6137C194.146 62.3638 194.262 63.1316 194.301 63.9053C194.324 64.2322 194.401 64.5528 194.529 64.8541C194.612 65.182 194.529 65.5238 194.8 65.7644C195.233 66.1132 197.045 65.3633 197.547 65.1506C198.216 64.8645 198.85 64.7773 199.501 64.4111C200.655 63.7693 201.674 62.7787 203.073 62.7299C204.151 62.6915 205.048 63.1485 206.07 63.3298C206.871 63.4728 207.824 63.3089 208.641 63.3298C209.729 63.3298 210.699 63.0264 211.787 63.0368C212.875 63.0473 214.025 63.0647 215.141 63.0368C216.472 63.0089 217.663 62.4857 218.952 62.2206C220.03 62.0009 221.031 61.6033 222.088 61.3452C223.615 60.9738 225.111 60.4816 226.561 59.8732C227.05 59.6639 227.476 59.3954 227.947 59.1931C228.293 59.0501 228.72 59.0884 228.803 58.6699C227.773 58.4802 226.731 58.3637 225.684 58.3211C224.86 58.3211 224.198 57.9723 223.37 58.0351C223.678 57.6444 224.756 57.3026 225.192 57.1631C225.629 57.0235 227.271 56.9433 227.341 56.312C226.828 56.1585 226.277 56.2352 225.754 56.1027C225.275 55.9888 224.783 55.9395 224.292 55.9562C223.044 55.9562 221.887 55.6527 220.633 55.6632C220.385 55.6875 220.136 55.6875 219.888 55.6632C219.687 55.6214 219.541 55.4644 219.396 55.4225C218.886 55.3304 218.366 55.3081 217.851 55.3563H214.777C212.636 55.3563 210.675 55.4051 208.634 55.9109C207.429 56.2166 206.252 56.6238 205.114 57.1282C204.515 57.3898 203.926 57.6409 203.337 57.9479C202.99 58.1327 202.197 58.9245 201.888 58.8966" stroke="black" stroke-miterlimit="10"/>
</g>
<defs>
<clipPath id="clip0_600_1130">
<rect width="229" height="86" fill="white"/>
</clipPath>
</defs>
</svg>
